<svg width="135" height="97" viewBox="0 0 135 97" fill="none" xmlns="http://www.w3.org/2000/svg">
<path d="M13.3 96.6001L4.95464e-07 80.5001C9.1 76.3001 16.5667 71.5168 22.4 66.1501C28.2333 60.7834 31.15 56.1167 31.15 52.1501C31.15 49.1168 29.8667 46.4334 27.3 44.1001C24.7333 41.5334 22.4 39.4334 20.3 37.8001C15.1667 33.6001 11.6667 30.1001 9.8 27.3001C8.16667 24.5001 7.35 21.5834 7.35 18.5501C7.35 12.9501 9.33333 8.51674 13.3 5.25008C17.2667 1.75008 22.4 8.13007e-05 28.7 8.13007e-05C35.2333 8.13007e-05 41.0667 1.75008 46.2 5.25008C51.5667 8.51674 55.7667 13.0667 58.8 18.9001C61.8333 24.7334 63.35 31.6168 63.35 39.5501C63.35 45.6168 62.0667 51.5668 59.5 57.4001C56.9333 63.2334 53.3167 68.7168 48.65 73.8501C44.2167 78.9834 38.9667 83.5334 32.9 87.5001C26.8333 91.4668 20.3 94.5001 13.3 96.6001ZM84.7 96.6001L71.4 80.5001C80.5 76.3001 87.9667 71.5168 93.8 66.1501C99.6333 60.7834 102.55 56.1167 102.55 52.1501C102.55 49.1168 101.267 46.4334 98.7 44.1001C96.1333 41.5334 93.8 39.4334 91.7 37.8001C86.5667 33.6001 83.0667 30.1001 81.2 27.3001C79.5667 24.5001 78.75 21.5834 78.75 18.5501C78.75 12.9501 80.7333 8.51674 84.7 5.25008C88.6667 1.75008 93.8 8.13007e-05 100.1 8.13007e-05C106.633 8.13007e-05 112.467 1.75008 117.6 5.25008C122.967 8.51674 127.167 13.0667 130.2 18.9001C133.233 24.7334 134.75 31.6168 134.75 39.5501C134.75 45.6168 133.467 51.5668 130.9 57.4001C128.333 63.2334 124.717 68.7168 120.05 73.8501C115.617 78.9834 110.367 83.5334 104.3 87.5001C98.2333 91.4668 91.7 94.5001 84.7 96.6001Z" fill="#E2E7FB"/>
</svg>
