<svg width="136" height="97" viewBox="0 0 136 97" fill="none" xmlns="http://www.w3.org/2000/svg">
<path d="M34.65 96.6001C28.1167 96.6001 22.1667 94.9668 16.8 91.7001C11.6667 88.2001 7.58333 83.5334 4.55 77.7001C1.51667 71.6334 9.90927e-07 64.7501 9.90927e-07 57.0501C9.90927e-07 50.9834 1.28333 45.0334 3.85 39.2001C6.41667 33.3667 9.91667 27.8834 14.35 22.7501C19.0167 17.6168 24.3833 13.0668 30.45 9.10009C36.5167 5.13342 43.05 2.10008 50.05 8.13007e-05L63.35 16.1001C54.25 20.3001 46.7833 25.0834 40.95 30.4501C35.1167 35.8168 32.2 40.4834 32.2 44.4501C32.2 47.4834 33.4833 50.1668 36.05 52.5001C38.6167 54.8334 40.95 56.9334 43.05 58.8001C48.1833 63.0001 51.5667 66.5001 53.2 69.3001C55.0667 72.1001 56 75.0168 56 78.0501C56 83.6501 54.0167 88.2001 50.05 91.7001C46.0833 94.9668 40.95 96.6001 34.65 96.6001ZM107.1 96.6001C100.567 96.6001 94.6167 94.9668 89.25 91.7001C84.1167 88.2001 80.0333 83.5334 77 77.7001C73.9667 71.6334 72.45 64.7501 72.45 57.0501C72.45 50.9834 73.7333 45.0334 76.3 39.2001C78.8667 33.3667 82.3667 27.8834 86.8 22.7501C91.4667 17.6168 96.8333 13.0668 102.9 9.10009C108.967 5.13342 115.5 2.10008 122.5 8.13007e-05L135.8 16.1001C126.7 20.3001 119.233 25.0834 113.4 30.4501C107.567 35.8168 104.65 40.4834 104.65 44.4501C104.65 47.4834 105.933 50.1668 108.5 52.5001C111.067 54.8334 113.4 56.9334 115.5 58.8001C120.633 63.0001 124.017 66.5001 125.65 69.3001C127.517 72.1001 128.45 75.0168 128.45 78.0501C128.45 83.6501 126.467 88.2001 122.5 91.7001C118.533 94.9668 113.4 96.6001 107.1 96.6001Z" fill="#E2E7FB"/>
</svg>
