<svg width="25" height="25" viewBox="0 0 25 25" fill="none" xmlns="http://www.w3.org/2000/svg">
<path d="M21.6471 10.0901C21.1979 10.0901 20.866 10.5101 20.9621 10.954C21.6629 14.186 20.449 17.3136 18.4417 19.1464C17.8207 17.4904 16.7188 16.2841 15.1161 15.5115C16.4279 14.45 17.0724 13.0895 16.9152 11.3996C16.8003 10.1654 16.2379 9.14603 15.2826 8.36458C13.4119 6.83432 10.7073 7.08768 9.1257 8.93005C7.53472 10.7837 7.65084 13.7991 9.87515 15.5127C9.10166 15.8824 8.4214 16.3666 7.84788 16.9961C7.27787 17.6221 6.8486 18.3365 6.55539 19.1399C4.55626 17.3581 3.12948 13.9083 4.20734 10.2906C5.22713 6.86695 8.19446 4.45141 11.6192 4.10073C11.9036 4.07166 12.1417 3.86992 12.2209 3.59223C12.3575 3.1122 11.9734 2.6393 11.4826 2.68974C6.39647 3.2107 2.43516 7.54575 2.4375 12.8201C2.43985 18.4409 6.94126 22.9961 12.4965 23.0003C18.0476 23.0044 22.5561 18.4475 22.5625 12.8272C22.5637 12.0778 22.4839 11.3474 22.332 10.6437C22.2623 10.3197 21.9749 10.0901 21.6471 10.0901ZM9.46114 11.8677C9.4629 10.1684 10.8281 8.78586 12.5023 8.78823C14.1778 8.79061 15.5389 10.1737 15.5383 11.8737C15.5383 13.5713 14.1743 14.9508 12.4971 14.9502C10.8211 14.9496 9.45938 13.5671 9.46114 11.8677ZM17.0847 20.2507C15.682 21.1276 14.1596 21.5744 12.4408 21.5804C10.8539 21.5768 9.32333 21.1312 7.91473 20.2489C7.77047 20.1587 7.74056 20.0774 7.78923 19.9107C8.40557 17.8066 10.3103 16.3713 12.5006 16.3719C14.6909 16.3719 16.5933 17.806 17.2102 19.9124C17.2589 20.0786 17.2295 20.1599 17.0847 20.2507ZM18.9443 3.33056C18.9443 3.12348 18.9484 2.9164 18.9431 2.70932C18.9313 2.3088 18.6276 2.00263 18.2458 2.00026C17.8617 1.99788 17.5486 2.3005 17.5415 2.69923C17.5333 3.17035 17.5398 3.64148 17.5398 4.13218C17.0501 4.13218 16.5833 4.12506 16.1177 4.13455C15.7336 4.14227 15.438 4.45141 15.4321 4.83056C15.4263 5.21683 15.7259 5.54021 16.1171 5.5503C16.4824 5.55979 16.8484 5.55267 17.2137 5.55326C17.3198 5.55326 17.426 5.55326 17.5398 5.55326C17.5398 6.05406 17.5333 6.51984 17.5415 6.98562C17.5486 7.38258 17.8652 7.68815 18.247 7.68519C18.6205 7.68222 18.9243 7.38376 18.9425 6.9969C18.9489 6.86398 18.9443 6.73048 18.9443 6.59757C18.9443 6.25342 18.9443 5.90868 18.9443 5.55326C19.4134 5.55326 19.8515 5.55504 20.2895 5.55326C20.7352 5.55089 21.0513 5.25362 21.0513 4.84243C21.0513 4.43123 20.734 4.13455 20.2883 4.13277C19.8503 4.13099 19.4128 4.13277 18.9443 4.13277C18.9443 3.84737 18.9443 3.58926 18.9443 3.33175V3.33056Z" fill="black"/>
</svg>
