<svg width="30" height="21" viewBox="0 0 30 21" fill="none" xmlns="http://www.w3.org/2000/svg">
<path d="M0 2.33571C0.170956 1.9182 0.280805 1.45982 0.525236 1.09486C1.01846 0.344517 1.77722 0.0233571 2.66183 0C2.71057 0 2.75858 0 2.80732 0H26.9449C28.0805 0 28.9658 0.445974 29.4627 1.49266C29.6377 1.87134 29.7297 2.28327 29.7326 2.70066C29.75 7.89809 29.7527 13.0963 29.7406 18.2952C29.7406 19.8871 28.5912 20.9907 26.9762 20.9907C20.3052 20.9907 13.6343 20.9907 6.96338 20.9907C5.60737 20.9907 4.25136 20.9622 2.8968 20.9987C1.40984 21.0389 0.242976 20.1228 0.0269165 18.7119C0.0204773 18.6923 0.0114231 18.6736 0 18.6565L0 2.33571ZM3.00592 1.75908C3.09249 1.85324 3.14123 1.91017 3.19361 1.96272C6.4396 5.20157 9.68607 8.44017 12.933 11.6785C14.097 12.8405 15.6567 12.8303 16.8286 11.6625C20.062 8.43871 23.2947 5.21228 26.5266 1.98316C26.5899 1.92039 26.6452 1.85105 26.7296 1.75616L3.00592 1.75908ZM3.17251 19.217H26.5622L19.2308 11.7077C18.8023 12.1457 18.4116 12.5625 18.0035 12.9595C16.7712 14.1602 15.3191 14.5558 13.6554 14.1128C12.8886 13.9091 12.2485 13.4807 11.6956 12.9172C11.3093 12.5252 10.9259 12.1303 10.5098 11.7048L3.17251 19.217ZM1.7634 2.99262V18.0178L9.12397 10.4932L1.7634 2.99262ZM27.991 3.06562L27.9263 3.02401C25.4655 5.53344 23.001 8.04602 20.5329 10.5618L27.991 17.9981V3.06562Z" fill="white"/>
</svg>
