<svg width="12" height="25" viewBox="0 0 12 25" fill="none" xmlns="http://www.w3.org/2000/svg">
<path d="M9.55041 0C9.86422 0 10.178 0.0134326 10.4912 0.039626C10.7236 0.0591032 10.956 0.0785804 11.1878 0.0994009C11.4563 0.122908 11.7247 0.151116 12 0.17731V4.15402C11.8745 4.15402 11.7564 4.15267 11.639 4.15402C10.8784 4.16611 10.1165 4.15267 9.35777 4.19767C8.39522 4.25476 7.86205 4.80415 7.81917 5.84182C7.77443 6.92986 7.80923 8.02192 7.80923 9.14824H11.8645C11.6849 10.652 11.5103 12.1168 11.3326 13.6052H7.79991V25H3.54824V13.6146H0V9.16436H3.54389C3.54389 9.03877 3.54389 8.94474 3.54389 8.85071C3.54824 7.68611 3.52152 6.52083 3.56564 5.35757C3.61908 3.95589 4.00186 2.66972 4.91658 1.62265C5.61255 0.826102 6.48004 0.369395 7.46248 0.149773C7.91487 0.0510437 8.37533 0 8.83704 0H9.55041Z" fill="white"/>
</svg>
