<svg width="306" height="183" viewBox="0 0 306 183" fill="none" xmlns="http://www.w3.org/2000/svg">
<path d="M86.6047 45.1586C85.9204 44.8364 85.1562 45.3597 85.1562 46.0854V63.283C85.1562 64.6119 85.9204 65.8197 87.1266 66.3843L111.061 77.2581C111.061 77.2581 111.302 77.5404 111.182 77.7015C110.82 78.0637 109.894 78.7482 107.28 79.3927C106.032 79.675 106.193 80.4394 106.315 80.8828C106.516 81.8495 107.521 82.6551 108.124 82.9773C108.969 83.4207 114.923 84.7497 119.87 83.2996C122.244 82.6151 122.001 82.3728 123.289 82.9374C124.576 83.5007 136 88.7777 140.867 90.9922C142.234 91.6367 143.844 91.6367 145.211 90.9922L198.388 66.7065C199.716 66.102 200.56 64.7731 200.56 63.323C200.56 63.323 200.641 53.858 200.439 48.1787C200.359 45.5209 198.95 45.4809 197.301 46.1653C192.876 48.0988 186.681 51.2001 186.681 51.2001C186.681 51.2001 185.515 51.6835 185.836 52.1668C186.158 52.6502 189.336 57.0804 182.859 60.6651C180.083 62.1951 177.63 62.1951 174.613 62.1551C171.596 62.1152 168.86 60.9873 166.327 61.5107C163.792 62.034 163.189 62.5174 162.023 63.1219C160.857 63.7264 148.265 69.7678 148.265 69.7678C148.265 69.7678 145.812 71.0568 143.639 71.0968C141.468 71.1367 139.737 70.4523 137.606 69.2445C135.313 67.9156 94.8058 49.0256 86.5597 45.1999L86.5997 45.1599L86.6047 45.1586Z" fill="white"/>
<path d="M73.619 31.1833L140.313 0.695073C142.325 -0.231691 144.657 -0.231691 146.669 0.695073L213.241 31.0622C214.971 31.8678 214.971 34.3246 213.241 35.0902L181.101 49.831C181.101 49.831 178.045 50.7578 181.744 52.9723C183.112 53.8179 183.032 54.7846 182.669 55.5103C182.106 56.718 180.135 57.4437 177.641 57.6048C171.407 58.007 169.757 57.0415 166.942 56.7593C165.775 56.6381 164.568 57.2826 160.425 59.296C157.126 60.8673 147.151 65.3774 147.151 65.3774C144.817 66.4241 142.162 66.4241 139.83 65.3774L73.659 35.0902C72.0095 34.3246 72.0095 31.989 73.659 31.2233L73.619 31.1833Z" fill="white"/>
<path d="M0 141.295H12.1081V172.106H18.9057V141.295H31.0139V135.536H0V141.295Z" fill="white"/>
<path d="M41.1164 148.502V144.233H34.9219V172.144H41.3986V158.652C41.3986 155.712 42.1228 153.537 43.5712 152.127C45.0197 150.717 47.0312 149.992 49.5248 149.992H50.209C50.45 149.992 50.6923 150.032 50.9333 150.074V143.871C48.3186 143.871 46.106 144.354 44.2955 145.361C42.8882 146.127 41.9218 147.213 41.1177 148.502H41.1164Z" fill="white"/>
<path d="M77.2779 158.291C77.2779 160.143 76.9557 161.674 76.3526 162.922C75.7096 164.171 74.8243 165.096 73.698 165.741C72.5318 166.385 71.2045 166.668 69.6749 166.668C67.6234 166.668 66.0139 166.063 64.8876 164.815C63.7213 163.566 63.1582 161.714 63.1582 159.257V144.154H56.6016V160.103C56.6016 162.882 57.1247 165.178 58.1299 167.03C59.1351 168.842 60.5835 170.212 62.394 171.098C64.2046 171.983 66.296 172.427 68.6697 172.427C70.8424 172.427 72.8127 171.943 74.6233 170.977C75.8707 170.292 76.8359 169.366 77.64 168.359V172.105H83.8345V144.194H77.3178V158.291H77.2779Z" fill="white"/>
<path d="M99.8367 135.536H93.0391V172.106H118.904V166.347H99.8367V135.536Z" fill="white"/>
<path d="M142.798 145.645C140.666 144.438 138.253 143.833 135.557 143.833C132.861 143.833 130.288 144.438 128.115 145.685C125.942 146.934 124.253 148.625 123.007 150.76C121.759 152.895 121.156 155.351 121.156 158.17C121.156 160.989 121.799 163.406 123.047 165.581C124.334 167.715 126.103 169.406 128.437 170.655C130.771 171.904 133.465 172.508 136.563 172.508C139.017 172.508 141.148 172.104 143.08 171.34C144.97 170.574 146.58 169.446 147.867 167.998L144.327 163.93C143.362 164.936 142.236 165.702 140.988 166.225C139.742 166.749 138.334 166.991 136.764 166.991C134.914 166.991 133.304 166.629 131.897 165.903C130.49 165.179 129.444 164.171 128.679 162.883C128.197 162.077 127.955 161.192 127.754 160.225H149.555C149.555 159.943 149.595 159.62 149.637 159.258V158.331C149.637 155.391 149.034 152.813 147.826 150.639C146.619 148.464 144.93 146.813 142.798 145.604V145.644V145.645ZM128.518 153.097C129.161 151.848 130.128 150.881 131.374 150.197C132.621 149.512 133.989 149.19 135.558 149.19C137.128 149.19 138.535 149.512 139.741 150.197C140.907 150.881 141.873 151.848 142.517 153.057C143 153.903 143.241 154.869 143.362 155.916H127.674C127.835 154.909 128.076 153.942 128.52 153.097H128.518Z" fill="white"/>
<path d="M165.851 143.831C163.638 143.831 161.507 144.114 159.415 144.717C157.364 145.321 155.553 146.167 154.025 147.335L156.6 152.087C157.686 151.202 158.973 150.557 160.462 150.033C161.95 149.549 163.479 149.308 165.007 149.308C167.381 149.308 169.15 149.832 170.316 150.919C171.482 151.966 172.045 153.457 172.045 155.39V155.792H164.805C161.989 155.792 159.736 156.154 158.007 156.88C156.318 157.605 155.07 158.612 154.306 159.86C153.542 161.109 153.18 162.518 153.18 164.089C153.18 165.66 153.622 167.109 154.467 168.398C155.311 169.687 156.519 170.654 158.087 171.378C159.655 172.103 161.466 172.466 163.557 172.466C166.051 172.466 168.102 172.023 169.712 171.097C170.878 170.453 171.683 169.527 172.326 168.519V172.104H178.481V155.752C178.481 151.724 177.395 148.704 175.182 146.77C172.969 144.837 169.873 143.83 165.81 143.83H165.85L165.851 143.831ZM169.27 166.627C167.982 167.351 166.575 167.715 164.966 167.715C163.356 167.715 161.989 167.353 161.064 166.668C160.138 165.984 159.656 165.057 159.656 163.889C159.656 162.801 160.058 161.916 160.823 161.191C161.587 160.467 163.075 160.103 165.288 160.103H172.085V163.326C171.482 164.736 170.557 165.823 169.31 166.548L169.27 166.628V166.627Z" fill="white"/>
<path d="M208.411 148.021C207.486 146.893 206.441 145.927 205.154 145.242C203.263 144.275 201.132 143.792 198.758 143.792C196.064 143.792 193.69 144.355 191.558 145.483C189.427 146.611 187.778 148.182 186.53 150.196C185.283 152.25 184.68 154.626 184.68 157.325C184.68 160.024 185.283 162.358 186.53 164.373C187.778 166.387 189.426 167.958 191.558 169.086C193.69 170.213 196.064 170.777 198.758 170.777C201.132 170.777 203.263 170.293 205.154 169.327C206.28 168.722 207.245 167.917 208.091 166.951V168.522C208.091 171.381 207.366 173.516 205.959 174.926C204.551 176.336 202.298 177.061 199.281 177.061C197.311 177.061 195.379 176.738 193.529 176.134C191.678 175.489 190.15 174.684 188.943 173.677L186.006 178.551C187.615 179.88 189.627 180.886 192.039 181.571C194.453 182.255 196.988 182.577 199.602 182.577C204.469 182.577 208.21 181.37 210.785 178.993C213.36 176.617 214.647 172.871 214.647 167.837V144.155H208.453V147.981L208.413 148.021H208.411ZM207.124 161.473C206.4 162.681 205.395 163.607 204.107 164.292C202.82 164.976 201.372 165.299 199.722 165.299C198.073 165.299 196.624 164.976 195.297 164.292C194.01 163.607 192.964 162.681 192.28 161.473C191.556 160.265 191.194 158.895 191.194 157.365C191.194 155.835 191.556 154.385 192.28 153.176C193.004 152.008 194.01 151.081 195.297 150.397C196.584 149.712 198.073 149.39 199.722 149.39C201.372 149.39 202.82 149.712 204.107 150.397C205.395 151.041 206.4 151.968 207.124 153.176C207.848 154.344 208.21 155.754 208.21 157.365C208.21 158.976 207.848 160.265 207.124 161.473Z" fill="white"/>
<path d="M243.684 158.291C243.684 160.143 243.362 161.674 242.759 162.922C242.116 164.171 241.231 165.096 240.104 165.741C238.938 166.385 237.611 166.668 236.081 166.668C234.03 166.668 232.421 166.063 231.294 164.815C230.128 163.566 229.564 161.714 229.564 159.257V144.154H223.008V160.103C223.008 162.882 223.531 165.178 224.536 167.03C225.541 168.842 226.99 170.212 228.8 171.098C230.611 171.983 232.702 172.427 235.076 172.427C237.249 172.427 239.219 171.943 241.03 170.977C242.277 170.292 243.242 169.366 244.046 168.359V172.105H250.241V144.194H243.724V158.291H243.684Z" fill="white"/>
<path d="M283.185 150.677C281.978 148.503 280.29 146.851 278.157 145.642C276.026 144.435 273.612 143.83 270.916 143.83C268.22 143.83 265.647 144.435 263.474 145.682C261.302 146.931 259.612 148.623 258.366 150.757C257.119 152.892 256.516 155.348 256.516 158.167C256.516 160.986 257.159 163.403 258.406 165.578C259.693 167.712 261.463 169.404 263.796 170.653C266.13 171.902 268.825 172.505 271.923 172.505C274.376 172.505 276.508 172.101 278.439 171.337C280.33 170.571 281.939 169.443 283.227 167.995L279.687 163.927C278.722 164.933 277.595 165.699 276.348 166.222C275.1 166.746 273.693 166.988 272.124 166.988C270.273 166.988 268.665 166.626 267.256 165.9C265.849 165.176 264.803 164.168 264.039 162.88C263.557 162.074 263.314 161.189 263.113 160.222H284.915C284.915 159.94 284.955 159.618 284.996 159.255V158.329C284.996 155.388 284.393 152.81 283.185 150.636V150.676V150.677ZM263.878 153.094C264.521 151.845 265.487 150.878 266.733 150.194C267.981 149.509 269.348 149.187 270.917 149.187C272.487 149.187 273.894 149.509 275.1 150.194C276.267 150.878 277.232 151.845 277.876 153.054C278.359 153.9 278.6 154.866 278.722 155.913H263.034C263.195 154.906 263.436 153.94 263.879 153.094H263.878Z" fill="white"/>
<path d="M294.094 135.796V127.383H297.675C298.156 127.383 298.596 127.503 298.997 127.744C299.405 127.976 299.73 128.297 299.97 128.706C300.21 129.106 300.331 129.559 300.331 130.063C300.331 130.52 300.211 130.945 299.97 131.337C299.73 131.729 299.409 132.047 299.008 132.286C298.608 132.519 298.163 132.635 297.675 132.635H295.392V135.796H294.095H294.094ZM299.092 135.796L296.953 131.998L298.287 131.697L300.665 135.807L299.091 135.795L299.092 135.796ZM295.391 131.385H297.795C298.027 131.385 298.235 131.328 298.419 131.216C298.604 131.096 298.747 130.935 298.851 130.735C298.956 130.527 299.007 130.298 299.007 130.051C299.007 129.77 298.94 129.526 298.802 129.318C298.675 129.101 298.49 128.933 298.249 128.813C298.017 128.693 297.752 128.633 297.456 128.633H295.39V131.386L295.391 131.385Z" fill="white"/>
<path d="M296.958 139.859C292.401 139.859 288.695 136.152 288.695 131.595C288.695 127.037 292.401 123.33 296.958 123.33C301.514 123.33 305.22 127.037 305.22 131.595C305.22 136.152 301.514 139.859 296.958 139.859ZM296.958 124.313C292.943 124.313 289.678 127.579 289.678 131.595C289.678 135.61 292.943 138.876 296.958 138.876C300.972 138.876 304.237 135.61 304.237 131.595C304.237 127.579 300.972 124.313 296.958 124.313Z" fill="white"/>
</svg>
