<svg width="78" height="78" viewBox="0 0 78 78" fill="none" xmlns="http://www.w3.org/2000/svg">
<rect x="1" y="1" width="75.4219" height="75.4219" rx="37.7109" fill="white"/>
<rect x="1" y="1" width="75.4219" height="75.4219" rx="37.7109" stroke="#FFCC00" stroke-width="2"/>
<path d="M63.8672 36.337C63.6278 35.7452 63.3047 35.1901 62.6416 35.0362C62.1282 34.9178 61.58 34.932 61.0462 34.9202C60.309 34.9024 60.3102 34.9155 60.0816 34.229C59.9751 33.907 59.8721 33.5851 59.7513 33.2678C59.4604 32.502 58.8058 32.0357 58.0194 32.0238C57.2271 32.012 56.5449 32.4878 56.2493 33.2761C56.1045 33.662 55.9692 34.0526 55.8591 34.4503C55.7658 34.7888 55.5791 34.9391 55.2176 34.9214C54.8011 34.9013 54.3822 34.9131 53.9645 34.9214C53.1483 34.9403 52.4876 35.4149 52.2351 36.1571C51.9802 36.9063 52.2016 37.6792 52.8395 38.1835C53.189 38.4592 53.5516 38.7208 53.9215 38.9682C54.186 39.1446 54.2554 39.3493 54.1501 39.6476C53.9981 40.0773 53.8568 40.5128 53.7383 40.9532C53.5337 41.7119 53.809 42.4469 54.4445 42.9026C55.0573 43.3417 55.8412 43.376 56.5018 42.9653C56.8669 42.7381 57.2247 42.4931 57.5563 42.2185C57.8806 41.9498 58.1487 41.9652 58.4623 42.2291C58.7447 42.4682 59.0559 42.6753 59.3647 42.8825C60.0912 43.3737 60.9074 43.3737 61.574 42.8896C62.2299 42.4138 62.4824 41.6669 62.2467 40.849C62.1282 40.4383 61.9965 40.0323 61.8505 39.631C61.7476 39.3505 61.8134 39.1529 62.06 38.9848C62.4274 38.7327 62.8176 38.4995 63.1347 38.1929C63.4232 37.9148 63.6266 37.5502 63.8672 37.2247C63.8672 36.9288 63.8672 36.6341 63.8672 36.3382V36.337ZM58.0123 33.3827C58.1798 33.5957 58.3186 33.7105 58.3761 33.8573C58.5221 34.2266 58.6286 34.6113 58.7567 34.9877C59.0738 35.9204 59.6926 36.3761 60.6872 36.4021C61.0893 36.4127 61.4951 36.3855 61.8948 36.4151C62.0468 36.427 62.2981 36.5335 62.3125 36.627C62.3364 36.7738 62.2419 36.9975 62.121 37.0993C61.7703 37.3952 61.3682 37.6307 61.0127 37.9207C60.3964 38.4249 60.1474 39.07 60.3664 39.8524C60.4777 40.2489 60.6369 40.6336 60.7267 41.0348C60.7722 41.2384 60.7087 41.4657 60.6944 41.6823C60.4682 41.629 60.218 41.6195 60.0229 41.5118C59.713 41.3414 59.4425 41.0999 59.1481 40.8975C58.3797 40.3696 57.6424 40.3661 56.8645 40.8928C56.5078 41.1342 56.1739 41.4112 55.8065 41.6337C55.6808 41.7107 55.4331 41.7403 55.3325 41.6681C55.232 41.5947 55.1829 41.3532 55.2176 41.2112C55.3158 40.8123 55.475 40.4288 55.597 40.0347C55.8819 39.1162 55.6401 38.3918 54.861 37.8165C54.5618 37.5964 54.2398 37.4023 53.9645 37.1561C53.8209 37.0271 53.7587 36.8104 53.6605 36.6329C53.8353 36.556 54.0052 36.4293 54.1848 36.4127C54.5701 36.3784 54.9603 36.4127 55.3481 36.3997C56.3211 36.3666 56.9279 35.9156 57.2439 35.0019C57.3731 34.6255 57.4761 34.2396 57.6245 33.8715C57.6879 33.7153 57.8387 33.5945 58.0111 33.3815L58.0123 33.3827ZM32.6153 50.1784C33.7152 49.5025 34.8786 49.1829 36.1723 49.1889C40.621 49.2078 45.0696 49.2019 49.5195 49.1924C51.3411 49.1889 52.8275 47.9602 53.1292 46.186C53.2273 45.6096 53.1854 45.0106 53.2129 44.4224C53.2333 43.9761 53.5133 43.6826 53.925 43.6637C54.3392 43.6447 54.703 43.9205 54.7018 44.3514C54.6982 45.116 54.7305 45.9007 54.5678 46.6393C54.0316 49.0788 51.9634 50.6814 49.4429 50.6838C44.9942 50.6897 40.5456 50.6956 36.0969 50.6779C35.1227 50.6743 34.2574 50.917 33.4328 51.4212C30.8967 52.9717 28.3426 54.4951 25.8017 56.0397C25.2464 56.377 24.6994 56.4682 24.119 56.1344C23.5421 55.8018 23.3303 55.2952 23.3554 54.6466C23.3985 53.4961 23.4033 52.3444 23.4392 51.1927C23.4499 50.8483 23.3566 50.6921 22.9676 50.6767C20.2017 50.5701 18.0043 48.3059 18.0019 45.5693C17.9983 40.4312 17.9983 35.293 18.0019 30.1549C18.0031 27.3355 20.2735 25.0179 23.1172 25.012C31.9391 24.9943 40.7622 24.9978 49.5853 25.012C51.9503 25.0156 54.0555 26.6454 54.5223 28.9393C54.7485 30.0519 54.6743 31.2261 54.7114 32.373C54.7281 32.8926 54.3942 33.2347 53.9514 33.2288C53.5062 33.2229 53.2153 32.8843 53.2117 32.3541C53.2069 31.6901 53.2117 31.0249 53.2105 30.3608C53.2081 28.0516 51.6415 26.4963 49.3136 26.4963C40.6701 26.4963 32.0253 26.4963 23.3817 26.4963C21.0658 26.4963 19.5111 28.0279 19.5028 30.323C19.4956 32.1387 19.5004 33.9555 19.5016 35.7712C19.504 39.1079 19.486 42.4445 19.5195 45.7812C19.5375 47.5483 21.1281 49.1084 22.897 49.19C24.3655 49.2575 24.9532 49.899 24.9244 51.3419C24.9005 52.4888 24.9197 53.6369 24.9197 54.83C27.5072 53.2688 30.0732 51.7419 32.6165 50.1784H32.6153ZM35.915 35.6422C35.9042 36.2837 36.1927 36.7785 36.7013 37.1513C37.3357 37.6177 37.9724 38.0817 38.6211 38.5291C38.9071 38.7267 38.9993 38.9339 38.8748 39.2759C38.6127 39.9956 38.3829 40.7271 38.1531 41.4574C37.879 42.3297 38.1148 43.092 38.797 43.5867C39.4828 44.0839 40.2739 44.0791 41.0399 43.55C41.6754 43.1109 42.3049 42.6611 42.9213 42.196C43.2026 41.9841 43.4264 41.9663 43.716 42.1865C44.3551 42.6718 45.005 43.1441 45.6705 43.5915C46.8314 44.3715 48.325 43.7844 48.5824 42.4315C48.6422 42.1155 48.5752 41.7557 48.4866 41.4373C48.2832 40.7152 48.0426 40.0015 47.7912 39.2937C47.668 38.9457 47.7362 38.7185 48.051 38.5078C48.6673 38.0935 49.2634 37.6485 49.8642 37.2105C50.6242 36.6554 50.9006 35.9322 50.6696 35.1309C50.4399 34.3378 49.7589 33.8301 48.8169 33.7993C48.0414 33.7744 47.2646 33.778 46.4891 33.7993C46.1109 33.8099 45.929 33.6715 45.8248 33.3081C45.6214 32.6003 45.3736 31.9067 45.1379 31.2083C44.841 30.3253 44.178 29.8152 43.3354 29.8093C42.4916 29.8045 41.8286 30.3028 41.5234 31.1918C41.2745 31.9161 41.0327 32.6441 40.8077 33.3756C40.7143 33.6797 40.5468 33.8017 40.2272 33.7969C39.4517 33.7839 38.6749 33.778 37.8982 33.7969C36.7145 33.8253 35.9258 34.5698 35.9186 35.6398L35.915 35.6422ZM47.3975 35.2812C47.8307 35.2824 48.2652 35.2587 48.6949 35.2942C48.872 35.3096 49.0396 35.4528 49.2107 35.538C49.1245 35.7061 49.0802 35.9263 48.945 36.0316C48.3466 36.4944 47.717 36.9193 47.1067 37.3668C46.2617 37.9858 46.0259 38.7078 46.3419 39.6938C46.5717 40.4087 46.8242 41.1177 47.0325 41.8385C47.0803 42.003 46.9894 42.2066 46.9618 42.3924C46.7739 42.3605 46.5477 42.3818 46.4029 42.2859C45.7961 41.8835 45.2157 41.4444 44.622 41.0218C43.6657 40.34 42.9812 40.3412 42.0117 41.0277C41.466 41.4136 40.9274 41.8101 40.3804 42.196C40.171 42.3439 39.934 42.6292 39.691 42.3676C39.5714 42.2398 39.6001 41.9083 39.6587 41.6953C39.8538 41.0017 40.098 40.3211 40.3158 39.6334C40.6138 38.6889 40.3744 37.9763 39.5642 37.3869C38.9514 36.9406 38.3231 36.5145 37.727 36.0494C37.581 35.9357 37.5331 35.7002 37.4398 35.5203C37.6169 35.4422 37.7917 35.3013 37.9712 35.2954C38.7611 35.2705 39.5534 35.293 40.3433 35.28C41.2709 35.2646 41.8837 34.8196 42.1841 33.9484C42.4294 33.2383 42.6413 32.5174 42.9022 31.8132C42.9752 31.6179 43.1715 31.4687 43.3103 31.2971C43.4539 31.4604 43.661 31.6013 43.7316 31.7907C43.9937 32.4949 44.2031 33.2169 44.4461 33.9271C44.7501 34.8184 45.3688 35.2599 46.3215 35.28C46.6794 35.2871 47.0384 35.2812 47.3963 35.2812H47.3975ZM25.992 43.3334C26.3666 43.1736 26.7568 43.0411 27.1123 42.8458C27.5754 42.5901 28.0063 42.0693 28.4563 42.0634C28.8836 42.0575 29.324 42.5593 29.7489 42.8505C30.9218 43.6506 32.4322 43.1547 32.7075 41.816C32.7961 41.3852 32.6716 40.8845 32.5447 40.4442C32.1246 38.9848 31.9631 39.3908 33.209 38.477C34.1892 37.7585 34.5075 37.0436 34.2047 36.1571C33.9546 35.428 33.3023 34.9427 32.522 34.9214C32.0899 34.9095 31.6555 34.9013 31.2234 34.919C30.8656 34.9344 30.6765 34.79 30.5831 34.4479C30.4754 34.0514 30.3342 33.662 30.1893 33.2761C29.8961 32.4926 29.2091 32.012 28.4216 32.0215C27.6341 32.0321 26.9782 32.4937 26.6886 33.2631C26.533 33.6762 26.3894 34.0952 26.2661 34.5189C26.1811 34.8113 26.0028 34.9202 25.7096 34.9155C25.262 34.9084 24.8143 34.9084 24.3667 34.9202C23.5816 34.9403 22.9269 35.4185 22.6744 36.1429C22.4195 36.8744 22.6241 37.6485 23.2309 38.1432C23.5876 38.4332 23.9634 38.7019 24.3464 38.9564C24.63 39.1446 24.6887 39.3576 24.5738 39.6725C24.4158 40.0998 24.2794 40.5377 24.1669 40.9792C23.8712 42.1309 24.7521 43.2387 25.9908 43.3323L25.992 43.3334ZM28.4264 40.4075C28.0326 40.5732 27.664 40.688 27.3385 40.8774C26.9543 41.0999 26.6192 41.4041 26.2386 41.6361C26.1141 41.7119 25.8652 41.7391 25.7658 41.6657C25.6653 41.5911 25.621 41.3509 25.6569 41.2076C25.7598 40.7945 25.925 40.3968 26.0483 39.9885C26.3128 39.1138 26.0686 38.3894 25.3314 37.8414C24.9975 37.5928 24.6396 37.3739 24.3248 37.104C24.2028 36.9986 24.1046 36.782 24.125 36.6329C24.1369 36.5406 24.3871 36.4258 24.5379 36.4139C24.9388 36.3832 25.3433 36.4104 25.7455 36.4009C26.7448 36.3772 27.36 35.9298 27.682 34.9971C27.8064 34.6349 27.8962 34.2585 28.053 33.9117C28.126 33.7508 28.3199 33.6431 28.4587 33.5117C28.5832 33.6419 28.7603 33.7508 28.8237 33.9058C28.9973 34.3272 29.1074 34.7734 29.2726 35.1983C29.5287 35.8564 30.0158 36.2731 30.7279 36.3524C31.2593 36.4116 31.8003 36.3749 32.3353 36.4139C32.4861 36.4246 32.7374 36.537 32.7506 36.6305C32.7721 36.7785 32.6752 36.9986 32.5543 37.1016C32.2288 37.3798 31.8577 37.607 31.513 37.8662C30.832 38.3799 30.5843 39.0878 30.8129 39.8997C30.9362 40.3388 31.1121 40.7638 31.2222 41.2053C31.2581 41.3485 31.2126 41.5899 31.1121 41.6657C31.014 41.7391 30.7638 41.713 30.6382 41.6361C30.2707 41.4136 29.9488 41.1129 29.5766 40.9023C29.2247 40.7034 28.8297 40.5779 28.4264 40.4087V40.4075Z" fill="#4E156B"/>
</svg>
