<svg width="78" height="78" viewBox="0 0 78 78" fill="none" xmlns="http://www.w3.org/2000/svg">
<rect x="1" y="1" width="75.42" height="75.42" rx="37.71" fill="white"/>
<rect x="1" y="1" width="75.42" height="75.42" rx="37.71" stroke="#FFCC00" stroke-width="2"/>
<path d="M40.4997 40.0475C38.6225 40.0475 36.819 40.0407 35.0155 40.0529C34.5732 40.0557 34.1896 39.9849 34.0121 39.5316C33.8469 39.1083 34.0448 38.7912 34.3438 38.4931C38.1297 34.7256 41.9087 30.9527 45.6918 27.1824C46.2365 26.6393 46.6188 26.6434 47.173 27.196C50.9439 30.954 54.7119 34.7147 58.4814 38.4741C58.5169 38.5094 58.5524 38.5476 58.5892 38.5829C58.8759 38.8552 58.9838 39.1777 58.8268 39.5507C58.6698 39.925 58.3626 40.0529 57.9653 40.0516C56.0922 40.0434 54.2191 40.0488 52.3446 40.0488C52.1617 40.0488 51.9773 40.0488 51.7371 40.0488V40.6341C51.7371 44.0654 51.7371 47.4968 51.7371 50.9281C51.7371 51.0805 51.748 51.2357 51.7275 51.3868C51.6715 51.7965 51.3275 52.0809 50.9125 52.0768C50.4974 52.0728 50.1629 51.7828 50.1138 51.3704C50.096 51.2193 50.107 51.0655 50.107 50.9117C50.107 48.1596 50.0605 45.4075 50.1261 42.6567C50.1575 41.3215 49.8052 39.9563 50.3513 38.6483C51.6688 38.142 53.0368 38.5435 54.3774 38.4291C54.8976 38.3856 55.426 38.4223 55.9502 38.4223C55.9871 38.3747 56.0239 38.3271 56.0608 38.2794C52.8511 35.138 49.6414 31.998 46.474 28.896C43.3012 32.0592 40.1188 35.2333 36.9214 38.4223C37.5098 38.4223 38.1324 38.4223 38.7536 38.4223C39.5372 38.4223 40.3209 38.421 41.1045 38.4223C41.8745 38.4251 42.1326 38.685 42.1326 39.469C42.1326 42.6798 42.1326 45.8893 42.1326 49.1001C42.1326 50.8832 42.1326 52.6676 42.1326 54.4506C42.1326 55.191 41.8568 55.5504 41.3011 55.5408C40.7673 55.5313 40.5011 55.1788 40.5011 54.4724C40.5011 49.8855 40.5011 45.2999 40.5011 40.7131C40.5011 40.513 40.5011 40.3115 40.5011 40.0488L40.4997 40.0475ZM43.6234 26.1888C44.0398 26.1915 44.3675 26.0718 44.5272 25.673C44.676 25.3 44.5518 24.9843 44.2719 24.7066C41.3325 21.7789 38.3972 18.8457 35.4551 15.918C34.9787 15.443 34.565 15.4484 34.0831 15.9275C31.1546 18.843 28.2303 21.7639 25.3018 24.6794C25.011 24.9693 24.8622 25.2878 25.026 25.6839C25.1912 26.084 25.523 26.1929 25.9367 26.1888C27.265 26.1779 28.5934 26.1847 29.9218 26.1847C30.1007 26.1847 30.2809 26.1847 30.4843 26.1847C30.4843 27.1579 30.4843 28.0562 30.4843 28.9559C30.4843 31.5883 30.4829 34.2206 30.4843 36.853C30.4843 37.475 30.8201 37.8343 31.3512 37.803C31.8331 37.7745 32.113 37.4342 32.113 36.8503C32.1158 34.0818 32.113 31.3133 32.113 28.5449C32.113 27.5254 32.1171 26.5073 32.1117 25.4879C32.1076 24.8481 31.8181 24.5664 31.1724 24.5582C30.8324 24.5541 30.4911 24.5582 30.1512 24.5582C29.3962 24.5582 28.6412 24.5582 27.9081 24.5582C30.229 22.243 32.5226 19.955 34.7138 17.7691C36.9747 20.0258 39.271 22.3165 41.5182 24.5582C40.5953 24.5582 39.5563 24.5528 38.5188 24.5609C37.9808 24.565 37.6477 24.8468 37.6436 25.3436C37.63 26.9905 37.63 28.6388 37.6436 30.2857C37.6477 30.7825 38.0341 31.1078 38.5119 31.0765C38.9775 31.0452 39.2642 30.7104 39.2669 30.1673C39.2724 28.862 39.2683 27.5567 39.2683 26.1847C40.7659 26.1847 42.194 26.1779 43.622 26.1888H43.6234ZM25.5926 56.4038C28.6494 52.1218 31.6925 47.8302 34.7384 43.5414C34.9841 43.1957 35.234 42.8527 35.4743 42.5029C35.8279 41.9898 35.7814 41.4943 35.3637 41.2044C34.9623 40.9268 34.4981 41.052 34.1404 41.5311C34.1104 41.5719 34.079 41.6127 34.0503 41.6549C30.7983 46.235 27.5476 50.8151 24.297 55.3965C24.1987 55.534 24.0963 55.6729 24.0267 55.8253C23.7741 56.3752 24.155 56.9632 24.9742 56.9713C25.1039 56.8556 25.4042 56.6692 25.5926 56.4051V56.4038ZM28.7422 44.5364C28.7887 42.5818 27.3497 41.022 25.4629 40.9785C23.6198 40.9376 22.0348 42.4131 22.0006 44.2015C21.9652 46.1656 23.3877 47.6805 25.3059 47.7213C27.1381 47.7594 28.6999 46.3112 28.7409 44.5364H28.7422ZM23.6335 44.3798C23.6185 43.4339 24.4226 42.6268 25.3755 42.6295C26.3107 42.6322 27.0971 43.4053 27.1108 44.3363C27.1244 45.2904 26.338 46.0758 25.3687 46.0744C24.4212 46.0744 23.6485 45.319 23.6335 44.3798ZM34.4298 57.3647C36.2852 57.3851 37.8279 55.8757 37.8389 54.03C37.8498 52.1231 36.3699 50.6177 34.4749 50.6109C32.6031 50.6041 31.1 52.0932 31.0946 53.9592C31.0891 55.8294 32.5731 57.3443 34.4298 57.3647ZM36.2047 53.9946C36.1951 54.946 35.3773 55.7341 34.4257 55.7069C33.481 55.6797 32.7206 54.8997 32.7287 53.9674C32.7369 53.0037 33.5206 52.2551 34.5036 52.2674C35.4456 52.2796 36.2142 53.0609 36.2047 53.9946ZM47.0352 42.2552C47.0352 41.6141 46.7307 41.2643 46.1996 41.2752C45.6918 41.2861 45.4051 41.6277 45.4051 42.2443C45.4023 45.0577 45.4023 47.8724 45.4051 50.6858C45.4051 51.3255 45.7109 51.678 46.2392 51.6658C46.7457 51.6549 47.0338 51.3105 47.0352 50.6967C47.0379 49.2893 47.0352 47.8833 47.0352 46.4759C47.0352 45.0686 47.0365 43.6625 47.0352 42.2552ZM45.4078 56.9332C45.4201 57.4491 45.7436 57.7798 46.216 57.7812C46.6911 57.7839 47.0256 57.4559 47.0324 56.94C47.0433 56.0104 47.0433 55.0794 47.0324 54.1498C47.027 53.6312 46.6993 53.3045 46.2228 53.3018C45.7464 53.3005 45.4201 53.6271 45.4064 54.1416C45.3955 54.5976 45.4037 55.0549 45.4037 55.5109C45.4037 55.9845 45.3955 56.4582 45.4064 56.9319L45.4078 56.9332ZM45.4105 60.4081C45.4105 60.6613 45.3791 60.9199 45.4173 61.1662C45.4856 61.6059 45.7668 61.8536 46.2187 61.8549C46.6706 61.8563 46.9751 61.6072 47.0188 61.1689C47.0679 60.6844 47.0666 60.1876 47.0188 59.7031C46.9751 59.2634 46.6747 59.0225 46.2215 59.013C45.786 59.0034 45.4474 59.3097 45.4105 59.7493C45.3928 59.9671 45.4078 60.1876 45.4078 60.4067H45.4105V60.4081Z" fill="#4E156B"/>
</svg>
