<svg width="78" height="78" viewBox="0 0 78 78" fill="none" xmlns="http://www.w3.org/2000/svg">
<rect x="1" y="1" width="75.4219" height="75.4219" rx="37.7109" fill="white"/>
<rect x="1" y="1" width="75.4219" height="75.4219" rx="37.7109" stroke="#FFCC00" stroke-width="2"/>
<path d="M30.7622 27.3652C32.6174 27.8403 34.4555 27.3591 36.3144 26.9377C38.2963 26.4869 40.3054 26.2512 42.3402 26.603C43.3503 26.7776 44.3234 27.0793 45.1415 27.6962C46.1245 28.4364 47.2477 28.7222 48.4251 28.8895C50.5694 29.1937 52.7138 29.1509 54.8434 28.7881C56.2533 28.5475 57.2768 28.9933 57.9646 30.332C58.7212 29.1985 59.4975 28.1298 59.5836 26.7557C59.6242 26.0973 59.2846 25.7968 58.6252 25.8408C57.8305 25.8933 57.0394 25.9959 56.2447 26.0191C55.8694 26.0301 55.4844 25.9287 55.1153 25.8335C54.7228 25.7321 54.5346 25.3889 54.6219 25.0261C54.7056 24.6792 55.0587 24.4435 55.4388 24.5473C56.3246 24.7879 57.2067 24.711 58.0839 24.5436C60.2959 24.1235 61.21 25.842 60.8877 27.3896C60.5936 28.7979 59.9158 30.0352 59.0361 31.1284C57.689 32.803 56.2619 34.4178 54.804 35.9995C54.2049 36.6493 53.8703 37.3138 53.8801 38.1945C53.9035 40.1451 53.8949 42.0958 53.8838 44.0464C53.8776 45.1262 53.3363 45.8089 52.3804 45.997C51.4097 46.1864 50.4353 45.5219 50.2742 44.5496C50.2373 44.3249 50.2213 44.0953 50.2201 43.8681C50.2151 42.3291 50.2164 40.79 50.2201 39.251C50.2201 39.0849 50.2237 38.9139 50.2607 38.7527C50.3419 38.4107 50.5891 38.2238 50.9287 38.2433C51.2855 38.2629 51.5266 38.4681 51.561 38.8479C51.5746 38.9994 51.5709 39.1521 51.5709 39.3048C51.5709 40.8291 51.5709 42.3523 51.5733 43.8766C51.5733 44.0427 51.5524 44.2418 51.6336 44.3652C51.7284 44.5093 51.9289 44.6742 52.0778 44.6681C52.2254 44.662 52.4099 44.48 52.496 44.3298C52.5711 44.1991 52.5391 44.0037 52.5391 43.8363C52.5416 41.9309 52.5551 40.0266 52.5354 38.1212C52.5231 36.923 52.9168 35.925 53.8124 35.1091C54.8458 34.1698 55.7919 33.156 56.4833 31.9272C56.7528 31.4484 56.8573 30.9867 56.5079 30.5201C56.177 30.078 55.7255 30.0157 55.1928 30.0987C52.4284 30.5275 49.6652 30.6008 46.9168 29.9656C46.0421 29.7629 45.2449 29.4099 44.5042 28.8859C43.0673 27.8672 41.4015 27.6473 39.7124 27.8293C38.102 28.0028 36.5051 28.3203 34.9168 28.644C33.8834 28.8541 32.861 28.9933 31.8141 28.8468C30.1901 28.6184 28.8171 29.1143 27.6693 30.2514C25.1362 32.7591 22.608 35.2703 20.081 37.7841C19.5274 38.3349 19.5213 38.8724 20.07 39.4171C24.7031 44.0208 29.3376 48.6219 33.9769 53.2207C34.5059 53.7459 35.0607 53.7434 35.591 53.2207C37.007 51.8246 38.4194 50.4248 39.8182 49.0116C39.9498 48.8784 40.0347 48.6451 40.0408 48.4546C40.0667 47.7242 40.0482 46.9925 40.0532 46.2609C40.0568 45.7393 40.2943 45.4511 40.7101 45.4425C41.1395 45.4352 41.4028 45.7418 41.4028 46.2816C41.4064 48.8723 41.404 51.463 41.404 54.0537C41.404 54.1905 41.4077 54.3285 41.404 54.4653C41.3978 54.7731 41.5455 54.9844 41.8493 54.9966C42.179 55.0113 42.3451 54.7975 42.3562 54.4726C42.3611 54.3505 42.3574 54.2284 42.3574 54.1074C42.3574 50.5262 42.3574 46.9449 42.3574 43.3636C42.3574 43.2268 42.3525 43.0888 42.3599 42.952C42.3833 42.5501 42.6502 42.268 43.0107 42.257C43.3847 42.2448 43.6947 42.5367 43.7058 42.9581C43.7218 43.6409 43.7107 44.3249 43.7107 45.1262C43.899 44.9552 44.0183 44.855 44.129 44.7463C45.4651 43.421 46.7999 42.0958 48.1348 40.7705C48.243 40.663 48.3476 40.5457 48.4731 40.4627C48.7843 40.2563 49.0919 40.2917 49.3441 40.5604C49.5828 40.8145 49.5914 41.1113 49.3933 41.3971C49.3072 41.5205 49.1891 41.6243 49.0808 41.7318C47.4101 43.3917 45.7419 45.0553 44.0601 46.7055C43.8128 46.9473 43.7009 47.188 43.7033 47.5385C43.7181 49.8397 43.7206 52.1409 43.707 54.4421C43.6997 55.6904 42.7105 56.521 41.5258 56.3085C40.683 56.157 40.0704 55.4522 40.0556 54.5679C40.0372 53.4711 40.0495 52.373 40.047 51.2761C40.047 51.1308 40.0347 50.9842 40.0249 50.757C39.8588 50.9072 39.7456 51.0001 39.6422 51.1027C38.6211 52.114 37.6037 53.1315 36.5789 54.1392C35.4766 55.2238 34.0901 55.2312 32.9902 54.149C31.5397 52.7223 30.0991 51.2859 28.6609 49.847C28.533 49.72 28.4493 49.5502 28.3447 49.4C28.2721 49.4 28.1996 49.3975 28.127 49.3963C28.0261 49.5502 27.9486 49.7261 27.8219 49.8531C25.6775 51.9919 23.5307 54.127 21.3753 56.2559C20.289 57.3296 18.8311 57.5519 17.5824 56.8606C15.78 55.8626 15.4516 53.4772 16.9377 51.9833C19.1067 49.8043 21.2965 47.6472 23.4815 45.4828C23.6008 45.3656 23.7485 45.2764 24.0413 45.0517C23.7829 44.8916 23.6008 44.8196 23.4729 44.6938C22.0224 43.2647 20.5768 41.8307 19.1362 40.3931C18.0437 39.3023 18.0314 37.9148 19.1227 36.8326C23.3708 32.6235 27.6263 28.4205 31.878 24.2151C32.5879 23.5127 33.4306 23.062 34.4395 23.0119C36.5715 22.9057 38.6002 22.2925 40.6572 21.81C41.6648 21.5731 42.6896 21.5108 43.7193 21.6696C43.8547 21.6903 44.0429 21.6867 44.1106 21.771C44.2791 21.9786 44.4919 22.2266 44.5006 22.466C44.5129 22.786 44.2459 23.073 43.894 23.0156C41.8592 22.6785 39.9916 23.4199 38.065 23.8254C36.8545 24.0807 35.607 24.1638 34.3866 24.3812C33.9646 24.4569 33.4872 24.6108 33.1846 24.8893C32.3222 25.6832 31.5373 26.5602 30.761 27.3652H30.7622ZM24.7585 46.0887C24.5715 46.2816 24.3845 46.482 24.1901 46.6762C22.1196 48.7331 20.0515 50.7924 17.9748 52.8432C17.452 53.3599 17.2207 53.9535 17.4298 54.6644C17.81 55.9604 19.3798 56.3256 20.3763 55.3447C22.6289 53.1242 24.868 50.8901 27.112 48.661C27.1637 48.6097 27.2055 48.5474 27.2313 48.5157C26.4108 47.7107 25.6074 46.9205 24.7597 46.0899L24.7585 46.0887ZM56.1745 18.6502C55.2125 16.7826 52.7655 16.4345 51.2276 17.9442C48.8815 20.2478 46.5563 22.5747 44.2225 24.8917C44.1475 24.9662 44.0638 25.0408 44.0097 25.1299C43.8325 25.4218 43.835 25.7199 44.081 25.9678C44.3406 26.2304 44.6506 26.25 44.9558 26.0387C45.08 25.952 45.1834 25.8347 45.2916 25.7272C47.3548 23.6801 49.4167 21.6329 51.4798 19.5858C51.7517 19.3171 52.0113 19.0337 52.3004 18.7845C53.2748 17.9466 54.7646 18.3717 55.1128 19.5919C55.3097 20.282 55.1067 20.8756 54.5949 21.3813C52.8639 23.0901 51.1391 24.805 49.4167 26.5211C49.0845 26.8522 49.0575 27.2565 49.3232 27.5374C49.6062 27.8354 49.9974 27.8391 50.3382 27.502C52.1442 25.7162 53.9478 23.9305 55.7366 22.1288C56.2865 21.5755 56.5325 20.8744 56.626 20.0658C56.4796 19.5919 56.3984 19.085 56.1745 18.6502ZM35.3499 39.1936C35.3499 40.0767 35.3179 40.9598 35.3585 41.8417C35.3978 42.7101 36.104 43.3746 36.9996 43.4723C37.8178 43.5615 38.7503 43.0057 38.8807 42.1886C39.0123 41.3568 38.9767 40.4944 38.9607 39.6455C38.9545 39.3109 38.6876 39.1106 38.3296 39.1044C37.9998 39.0983 37.7685 39.2547 37.6763 39.571C37.6394 39.6993 37.648 39.8422 37.6468 39.979C37.6418 40.5274 37.6529 41.0746 37.6369 41.6231C37.6283 41.9162 37.4647 42.1312 37.1546 42.1275C36.8459 42.1251 36.6945 41.9199 36.6859 41.617C36.681 41.4496 36.6798 41.2823 36.6798 41.1149C36.6798 39.6382 36.6835 38.1615 36.6748 36.686C36.6712 36.1742 36.4066 35.8725 36.0019 35.8725C35.5959 35.8725 35.3375 36.1718 35.3339 36.6835C35.3265 37.5202 35.3314 38.3581 35.3314 39.1948H35.3499V39.1936ZM31.322 38.9469C31.322 38.5059 31.322 38.065 31.322 37.6241C31.322 37.5935 31.3195 37.563 31.3158 37.5337C31.2592 37.0744 30.9123 36.8191 30.4792 36.9278C30.1028 37.0219 29.9822 37.3004 29.981 37.6509C29.9773 38.4265 29.9797 39.2022 29.9761 39.9778C29.9748 40.2954 29.8862 40.58 29.5086 40.5848C29.105 40.5909 29.0128 40.2966 29.0078 39.9607C29.0041 39.7017 29.014 39.4428 29.0029 39.1851C28.9832 38.7515 28.7544 38.5023 28.3767 38.484C27.9793 38.4644 27.6902 38.7124 27.6669 39.1545C27.6459 39.5625 27.6521 39.9778 27.7038 40.3833C27.8206 41.3116 28.6166 41.9638 29.5528 41.9382C30.4645 41.9125 31.2174 41.2298 31.2937 40.3149C31.3318 39.8617 31.2998 39.4037 31.2998 38.9481C31.3072 38.9481 31.3146 38.9481 31.3232 38.9481L31.322 38.9469ZM53.885 50.4981C53.885 50.0571 53.9145 49.6125 53.8715 49.1752C53.8518 48.9725 53.7361 48.7135 53.5774 48.6061C53.4212 48.4998 53.0903 48.4631 52.9525 48.5596C52.7593 48.6952 52.576 48.9761 52.5612 49.2058C52.5133 49.9936 52.5391 50.7863 52.5379 51.5778C52.5379 51.9088 52.4148 52.1727 52.0507 52.1666C51.6878 52.1617 51.5746 51.8881 51.5721 51.5632C51.5709 51.2896 51.5795 51.0147 51.5647 50.7424C51.5426 50.3246 51.2904 50.0681 50.9164 50.0608C50.5424 50.0535 50.2508 50.3002 50.2324 50.713C50.2127 51.1515 50.2164 51.5986 50.2779 52.0322C50.4009 52.8994 51.2264 53.5541 52.0974 53.5236C53.0201 53.4918 53.7817 52.8115 53.8555 51.9113C53.8936 51.4435 53.8616 50.9695 53.8616 50.4981C53.869 50.4981 53.8752 50.4981 53.8825 50.4981H53.885Z" fill="#4E156B"/>
</svg>
