<svg width="25" height="25" viewBox="0 0 25 25" fill="none" xmlns="http://www.w3.org/2000/svg">
<path d="M10.085 2.94629C9.77147 2.99444 9.45539 3.03183 9.14392 3.0933C5.97232 3.71772 3.52562 6.27276 3.03689 9.46554C2.41394 13.5363 5.17417 17.4098 9.23049 18.1577C13.4318 18.9322 17.4594 16.1108 18.1813 11.8879C18.8718 7.84687 16.2115 3.94259 12.1941 3.10918C11.8524 3.03849 11.504 3.00007 11.1588 2.94629C10.8007 2.94629 10.4431 2.94629 10.085 2.94629ZM16.7571 10.6104C16.7596 13.9871 14.0092 16.7434 10.6301 16.7496C7.25356 16.7557 4.49436 14.007 4.48616 10.6278C4.47745 7.24294 7.23563 4.47942 10.6224 4.47993C14.001 4.48044 16.754 7.23167 16.7571 10.6104ZM22.5859 20.5458C22.5752 20.5755 22.5598 20.6042 22.5542 20.6349C22.3815 21.5682 21.8436 22.1993 20.9415 22.4733C20.0516 22.7438 19.2668 22.5056 18.608 21.8525C18.2361 21.4837 17.8672 21.1118 17.4968 20.742C16.9912 20.2364 16.4825 19.7328 15.9804 19.2237C15.6869 18.9266 15.6526 18.527 15.8806 18.2135C16.1664 17.8207 16.7038 17.7858 17.0655 18.1459C17.9261 19.0014 18.7827 19.8614 19.6413 20.7189C19.6997 20.7773 19.7586 20.8377 19.8242 20.8874C20.2612 21.2153 20.8744 21.0063 21.0209 20.4802C21.109 20.1636 21.0014 19.907 20.7765 19.6826C19.9082 18.817 19.0429 17.9477 18.1736 17.083C17.9574 16.8684 17.8565 16.62 17.9251 16.3203C17.9907 16.0365 18.1715 15.8444 18.4492 15.7615C18.7514 15.6708 19.0148 15.7553 19.2366 15.9776C20.1213 16.8633 21.0071 17.7474 21.8913 18.6341C21.9768 18.7196 22.0532 18.8144 22.129 18.9087C22.3882 19.2303 22.4988 19.615 22.5859 20.0089C22.5859 20.1877 22.5859 20.367 22.5859 20.5458ZM11.3888 6.7599C11.4006 7.14818 11.084 7.54619 10.524 7.56207C10.1562 7.57231 9.76584 7.65017 9.4308 7.79975C8.22794 8.33606 7.60499 9.28831 7.55428 10.6078C7.53737 11.056 7.20284 11.3895 6.77149 11.3813C6.34885 11.3736 6.0215 11.0345 6.02201 10.5955C6.02201 10.4301 6.03636 10.2636 6.05326 10.0987C6.28379 7.85251 8.23306 6.0566 10.4825 6.01562C11.0204 6.00589 11.3744 6.29889 11.3883 6.7599H11.3888Z" fill="black"/>
</svg>
