<svg width="25" height="26" viewBox="0 0 25 26" fill="none" xmlns="http://www.w3.org/2000/svg">
<path d="M21.2609 3.38043C20.0571 4.61181 18.8671 5.82927 17.6718 7.05246C17.4222 6.85174 17.1746 6.63422 16.9097 6.44209C15.3997 5.34794 13.7093 4.92232 11.8874 5.17466C8.82276 5.59946 6.73802 7.36256 5.63557 10.269C4.04157 14.4711 6.33731 19.2659 10.5606 20.5694C12.893 21.2892 15.1457 20.9869 17.1951 19.6051C18.5138 18.7162 19.3063 17.4238 19.6512 15.8499C19.6628 15.7975 19.6624 15.7426 19.6709 15.659H12.7539V10.5811H24.772C24.8287 11.0629 24.8974 11.5413 24.9392 12.0222C25.1096 13.9967 24.9259 15.9364 24.3231 17.824C23.5542 20.2302 22.2062 22.2227 20.1805 23.711C18.7509 24.7613 17.1573 25.4233 15.4267 25.7485C14.075 26.0025 12.7157 26.075 11.3476 25.9173C8.6214 25.6031 6.23 24.5184 4.19952 22.6389C2.02797 20.6292 0.661852 18.1431 0.188797 15.1929C-0.413274 11.4365 0.423114 8.01676 2.72007 5.00343C4.32853 2.89173 6.3972 1.41251 8.90757 0.622307C12.0988 -0.382546 15.2249 -0.175267 18.2545 1.27896C19.3642 1.8115 20.3545 2.53124 21.2609 3.38043Z" fill="white"/>
</svg>
