<svg width="26" height="25" viewBox="0 0 26 25" fill="none" xmlns="http://www.w3.org/2000/svg">
<path d="M16.7304 12.5C16.7304 10.1562 14.8541 8.28125 12.5087 8.28125C10.1633 8.28125 8.287 10.1562 8.287 12.5C8.287 14.8438 10.1633 16.7188 12.5087 16.7188C14.8541 16.7188 16.7304 14.8438 16.7304 12.5ZM18.9194 12.5C18.9194 16.0938 16.1049 18.9063 12.5087 18.9063C8.91243 18.9063 6.09798 16.0938 6.09798 12.5C6.09798 8.90625 8.91243 6.09375 12.5087 6.09375C16.1049 6.09375 18.9194 8.90625 18.9194 12.5ZM20.6393 5.78125C20.6393 6.71875 20.0139 7.34375 19.0757 7.34375C18.1376 7.34375 17.5122 6.71875 17.5122 5.78125C17.5122 4.84375 18.1376 4.21875 19.0757 4.21875C20.0139 4.21875 20.6393 5 20.6393 5.78125ZM12.5087 2.1875C10.6324 2.1875 6.72342 2.03125 5.15983 2.65625C4.06532 3.125 3.12717 4.0625 2.81445 5.15625C2.18902 6.71875 2.34538 10.625 2.34538 12.5C2.34538 14.375 2.18902 18.2812 2.81445 19.8438C3.12717 20.9375 4.06532 21.875 5.15983 22.1875C6.72342 22.8125 10.7887 22.6562 12.5087 22.6562C14.2286 22.6562 18.2939 22.8125 19.8575 22.1875C20.952 21.7188 21.7338 20.9375 22.2029 19.8438C22.8283 18.125 22.672 14.2188 22.672 12.5C22.672 10.7812 22.8283 6.71875 22.2029 5.15625C21.8902 4.0625 20.952 3.125 19.8575 2.8125C18.2939 2.03125 14.385 2.1875 12.5087 2.1875ZM25.0174 12.5V17.6562C25.0174 19.5312 24.3919 21.4063 22.9847 22.9688C21.5775 24.375 19.7012 25 17.6685 25H7.34885C5.47255 25 3.59625 24.375 2.03266 22.9688C0.781793 21.5625 0 19.6875 0 17.6562V12.5V7.34375C0 5.3125 0.781793 3.4375 2.03266 2.03125C3.59625 0.78125 5.47255 0 7.34885 0H17.6685C19.5448 0 21.4211 0.625 22.9847 2.03125C24.2356 3.4375 25.0174 5.3125 25.0174 7.34375V12.5Z" fill="white"/>
</svg>
