<svg width="26" height="26" viewBox="0 0 26 26" fill="none" xmlns="http://www.w3.org/2000/svg">
<path d="M14.5891 26H9.21914V8.66088H14.3652V11.0227C14.4561 10.9167 14.497 10.8794 14.5259 10.8348C15.5351 9.24545 17.027 8.44836 18.8565 8.26173C19.891 8.15637 20.9268 8.23524 21.9348 8.51699C23.8919 9.06484 25.0197 10.4068 25.5499 12.3164C25.8574 13.4242 25.9777 14.5602 25.985 15.7017C26.0072 19.0544 25.9964 22.4071 25.9982 25.7598C25.9982 25.8116 25.9928 25.8634 25.988 25.9416H20.6C20.6 25.8182 20.6 25.6954 20.6 25.5726C20.6 22.9285 20.6174 20.2843 20.5903 17.6402C20.5813 16.757 20.5374 15.8594 20.3713 14.9949C20.0662 13.4055 18.9492 12.8053 17.4014 12.9672C15.7843 13.1358 14.9135 14.0533 14.7131 15.7408C14.6396 16.3585 14.5975 16.9834 14.5945 17.6053C14.5819 20.2705 14.5891 22.9357 14.5891 25.6009V25.9994V26ZM5.80808 8.66088H0.456188V25.9994H5.80808V8.66088ZM6.25403 3.11434C6.23958 1.40517 4.84218 0.00725212 3.14207 2.77218e-05C1.4251 -0.00719668 0.00543187 1.39855 1.55784e-05 3.11133C-0.00540071 4.8494 1.40223 6.27562 3.12341 6.27622C4.84459 6.27682 6.26847 4.83857 6.25403 3.11434Z" fill="white"/>
</svg>
