<svg width="25" height="25" viewBox="0 0 25 25" fill="none" xmlns="http://www.w3.org/2000/svg">
<path d="M15.0083 9.88288C17.2719 9.48737 19.243 10.045 20.8723 11.7096C22.145 13.0094 22.781 14.6146 22.7924 16.4764C22.8152 20.2011 19.9342 23.2357 16.3523 23.2382C14.3159 23.2401 12.6284 22.4015 11.3366 20.7644C10.0435 19.1254 9.6425 17.2261 9.99499 15.1246C7.59831 15.5358 5.53854 14.8887 3.893 13.0326C2.64251 11.622 2.10059 9.91667 2.22948 8.00045C2.47166 4.40833 5.469 1.49458 9.15933 1.7812C11.092 1.9314 12.662 2.83944 13.8304 4.45026C14.9951 6.05608 15.3506 7.87592 15.0083 9.88288ZM16.3314 21.7438C19.1087 21.7456 21.3495 19.4114 21.3573 16.5083C21.3645 13.6152 19.1213 11.2603 16.3475 11.249C13.5768 11.2384 11.2994 13.6102 11.3036 16.5033C11.3078 19.397 13.5576 21.7413 16.332 21.7438H16.3314ZM3.63583 8.50986C3.65621 8.75017 3.6676 8.99235 3.69817 9.23141C4.119 12.5332 7.43106 14.5971 10.423 13.4187C10.5363 13.3742 10.6514 13.2679 10.7131 13.1583C11.3108 12.0995 12.1129 11.2609 13.1278 10.637C13.2381 10.5694 13.3418 10.4392 13.3868 10.3141C13.7111 9.40977 13.7842 8.47669 13.614 7.5286C13.1356 4.86767 10.7971 3.03845 8.18939 3.27813C5.63625 3.51281 3.64722 5.8045 3.63583 8.50986ZM14.3046 16.0195C14.1325 15.8362 13.9323 15.7323 13.6841 15.7586C13.3904 15.7905 13.18 15.9507 13.0798 16.2423C12.9779 16.5408 13.0367 16.8137 13.2513 17.0396C13.7884 17.6047 14.3285 18.1667 14.8681 18.7286C15.2781 19.1561 15.6648 19.1586 16.0706 18.7349C16.9542 17.8137 17.8366 16.8919 18.719 15.9707C18.957 15.7223 19.2016 15.4807 19.4306 15.2235C19.8143 14.7917 19.6332 14.1189 19.0973 13.9775C18.8108 13.9018 18.5734 14.0013 18.3666 14.2185C17.4128 15.2204 16.4555 16.2179 15.4681 17.2505C15.0695 16.8293 14.6852 16.4263 14.304 16.0195H14.3046ZM8.86739 9.76272C9.20848 10.1244 9.55018 10.4855 9.89907 10.8391C10.1257 11.0681 10.4374 11.1138 10.7084 10.9768C10.9787 10.8404 11.1603 10.5412 11.1004 10.2308C11.0656 10.0518 10.9697 9.86285 10.8498 9.7283C10.4794 9.31214 10.0837 8.92039 9.65928 8.47919C9.74441 8.41223 9.81694 8.3678 9.87449 8.30772C10.2252 7.94538 10.5801 7.58617 10.9188 7.21194C11.1921 6.90968 11.1759 6.4591 10.9044 6.17686C10.6322 5.89337 10.2036 5.87835 9.91106 6.15746C9.69045 6.36773 9.48424 6.5949 9.27382 6.81706C9.076 7.02608 8.88177 7.23822 8.67556 7.46038C8.26912 7.03171 7.89385 6.62869 7.50839 6.23694C7.40948 6.13681 7.28659 6.04419 7.1583 5.99725C6.84658 5.8821 6.51327 6.02228 6.34003 6.31141C6.16378 6.60553 6.19855 6.97351 6.44553 7.23572C6.84298 7.65751 7.24942 8.07054 7.69602 8.53301C7.6103 8.59622 7.53477 8.6369 7.47602 8.69697C7.12953 9.05306 6.78004 9.40601 6.44613 9.77461C6.05588 10.2039 6.22913 10.8748 6.76205 11.0256C7.0486 11.1063 7.29078 11.0125 7.4952 10.7947C7.87766 10.3885 8.26132 9.98363 8.69953 9.52053C8.77087 9.62504 8.81044 9.70389 8.86739 9.7646V9.76272Z" fill="black"/>
</svg>
