<svg width="12" height="12" viewBox="0 0 12 12" fill="none" xmlns="http://www.w3.org/2000/svg">
<path d="M7.77304 5.18203C8.01295 5.18203 8.21697 5.09816 8.3851 4.93041C8.55323 4.76267 8.6371 4.55865 8.63672 4.31836C8.63633 4.07807 8.55246 3.87424 8.3851 3.70688C8.21774 3.53952 8.01372 3.45545 7.77304 3.45469C7.53237 3.45392 7.32854 3.53798 7.16156 3.70688C6.99459 3.87577 6.91052 4.0796 6.90937 4.31836C6.90822 4.55712 6.99229 4.76113 7.16156 4.93041C7.33084 5.09969 7.53467 5.18356 7.77304 5.18203ZM3.74258 5.18203C3.98249 5.18203 4.1865 5.09816 4.35463 4.93041C4.52276 4.76267 4.60663 4.55865 4.60625 4.31836C4.60587 4.07807 4.52199 3.87424 4.35463 3.70688C4.18727 3.53952 3.98325 3.45545 3.74258 3.45469C3.5019 3.45392 3.29807 3.53798 3.1311 3.70688C2.96412 3.87577 2.88006 4.0796 2.87891 4.31836C2.87775 4.55712 2.96182 4.76113 3.1311 4.93041C3.30038 5.09969 3.5042 5.18356 3.74258 5.18203ZM4.4623 7.77304H7.05332C7.17807 7.77304 7.28133 7.73216 7.36309 7.6504C7.44485 7.56864 7.48554 7.46558 7.48515 7.34121C7.48477 7.21684 7.44389 7.11377 7.36251 7.03201C7.28114 6.95025 7.17807 6.90937 7.05332 6.90937H4.4623C4.33755 6.90937 4.23449 6.95025 4.15311 7.03201C4.07173 7.11377 4.03085 7.21684 4.03047 7.34121C4.03008 7.46558 4.07096 7.56883 4.15311 7.65098C4.23525 7.73312 4.33832 7.77381 4.4623 7.77304ZM5.75781 11.5156C4.96131 11.5156 4.2128 11.3644 3.51227 11.0619C2.81173 10.7594 2.20236 10.3493 1.68416 9.83146C1.16596 9.31364 0.755809 8.70427 0.453716 8.00336C0.151623 7.30244 0.000384583 6.55392 7.28836e-07 5.75781C-0.000383125 4.9617 0.150855 4.21318 0.453716 3.51226C0.756577 2.81135 1.16673 2.20198 1.68416 1.68416C2.2016 1.16634 2.81096 0.756193 3.51227 0.453716C4.21357 0.151239 4.96208 0 5.75781 0C6.55354 0 7.30206 0.151239 8.00336 0.453716C8.70466 0.756193 9.31403 1.16634 9.83146 1.68416C10.3489 2.20198 10.7592 2.81135 11.0625 3.51226C11.3657 4.21318 11.5168 4.9617 11.5156 5.75781C11.5145 6.55392 11.3632 7.30244 11.0619 8.00336C10.7606 8.70427 10.3504 9.31364 9.83146 9.83146C9.31249 10.3493 8.70312 10.7596 8.00336 11.0625C7.30359 11.3653 6.55508 11.5164 5.75781 11.5156ZM5.75781 10.3641C7.04372 10.3641 8.13291 9.91783 9.02537 9.02537C9.91783 8.13291 10.3641 7.04372 10.3641 5.75781C10.3641 4.4719 9.91783 3.38271 9.02537 2.49025C8.13291 1.59779 7.04372 1.15156 5.75781 1.15156C4.4719 1.15156 3.38271 1.59779 2.49025 2.49025C1.59779 3.38271 1.15156 4.4719 1.15156 5.75781C1.15156 7.04372 1.59779 8.13291 2.49025 9.02537C3.38271 9.91783 4.4719 10.3641 5.75781 10.3641Z" fill="#C66F37"/>
</svg>
