<svg width="11" height="11" viewBox="0 0 11 11" fill="none" xmlns="http://www.w3.org/2000/svg">
<path d="M7.40127 4.93418C7.6297 4.93418 7.82396 4.85432 7.98405 4.6946C8.14414 4.53487 8.224 4.34061 8.22363 4.11182C8.22327 3.88302 8.1434 3.68894 7.98405 3.52958C7.82469 3.37023 7.63043 3.29018 7.40127 3.28945C7.1721 3.28872 6.97802 3.36876 6.81903 3.52958C6.66004 3.6904 6.58 3.88448 6.57891 4.11182C6.57781 4.33915 6.65785 4.53341 6.81903 4.6946C6.98022 4.85578 7.1743 4.93564 7.40127 4.93418ZM3.56357 4.93418C3.79201 4.93418 3.98627 4.85432 4.14636 4.6946C4.30644 4.53487 4.3863 4.34061 4.38594 4.11182C4.38557 3.88302 4.30571 3.68894 4.14636 3.52958C3.987 3.37023 3.79274 3.29018 3.56357 3.28945C3.33441 3.28872 3.14033 3.36876 2.98134 3.52958C2.82235 3.6904 2.74231 3.88448 2.74121 4.11182C2.74011 4.33915 2.82016 4.53341 2.98134 4.6946C3.14252 4.85578 3.3366 4.93564 3.56357 4.93418ZM5.48242 10.9648C4.72402 10.9648 4.01131 10.8208 3.34428 10.5328C2.67725 10.2448 2.09703 9.85429 1.60361 9.36123C1.11019 8.86818 0.71966 8.28796 0.432015 7.62056C0.144371 6.95317 0.000366189 6.24046 6.93974e-07 5.48242C-0.000364801 4.72438 0.14364 4.01167 0.432015 3.34428C0.720391 2.67688 1.11092 2.09666 1.60361 1.60361C2.0963 1.11056 2.67652 0.720025 3.34428 0.432015C4.01204 0.144005 4.72475 0 5.48242 0C6.24009 0 6.95281 0.144005 7.62056 0.432015C8.28832 0.720025 8.86855 1.11056 9.36123 1.60361C9.85392 2.09666 10.2446 2.67688 10.5334 3.34428C10.8221 4.01167 10.9659 4.72438 10.9648 5.48242C10.9637 6.24046 10.8197 6.95317 10.5328 7.62056C10.2459 8.28796 9.85538 8.86818 9.36123 9.36123C8.86709 9.85429 8.28686 10.245 7.62056 10.5334C6.95427 10.8217 6.24155 10.9656 5.48242 10.9648ZM5.48242 9.86836C6.70683 9.86836 7.74392 9.44347 8.59369 8.59369C9.44347 7.74392 9.86836 6.70683 9.86836 5.48242C9.86836 4.25801 9.44347 3.22092 8.59369 2.37115C7.74392 1.52137 6.70683 1.09648 5.48242 1.09648C4.25801 1.09648 3.22092 1.52137 2.37115 2.37115C1.52137 3.22092 1.09648 4.25801 1.09648 5.48242C1.09648 6.70683 1.52137 7.74392 2.37115 8.59369C3.22092 9.44347 4.25801 9.86836 5.48242 9.86836Z" fill="#DC022B"/>
<path d="M4.09729 6.48296C4.5315 6.27281 4.99074 6.16773 5.47502 6.16773C5.96807 6.16736 6.4317 6.27463 6.86591 6.48954C7.30012 6.70445 7.64971 7.0175 7.9147 7.42868C8.01521 7.57488 8.02891 7.72108 7.95582 7.86728C7.88272 8.01347 7.76393 8.08657 7.59946 8.08657C7.52672 8.08621 7.46057 8.07013 7.40099 8.03833C7.34142 8.00653 7.28879 7.95865 7.2431 7.89469C7.03294 7.6107 6.77253 7.38903 6.46186 7.22967C6.15119 7.07032 5.82224 6.99045 5.47502 6.99009C5.1278 6.98972 4.79886 7.06958 4.48818 7.22967C4.17751 7.38976 3.9171 7.61143 3.70694 7.89469C3.67002 7.95828 3.62196 8.00616 3.56275 8.03833C3.50354 8.07049 3.43739 8.08657 3.36429 8.08657C3.19982 8.08621 3.08103 8.01073 3.00793 7.86015C2.93483 7.70956 2.94854 7.55661 3.04905 7.40127C3.31367 6.99923 3.66308 6.69312 4.09729 6.48296Z" fill="#DC022B"/>
</svg>
