<svg width="19" height="19" viewBox="0 0 19 19" fill="none" xmlns="http://www.w3.org/2000/svg">
<rect width="19" height="19" rx="5" fill="#FCE7EB"/>
<path d="M11.4169 8.95176C11.6453 8.95176 11.8396 8.8719 11.9997 8.71217C12.1598 8.55245 12.2396 8.35819 12.2393 8.12939C12.2389 7.90059 12.159 7.70652 11.9997 7.54716C11.8403 7.3878 11.6461 7.30776 11.4169 7.30703C11.1877 7.3063 10.9936 7.38634 10.8347 7.54716C10.6757 7.70798 10.5956 7.90206 10.5945 8.12939C10.5934 8.35673 10.6735 8.55099 10.8347 8.71217C10.9958 8.87336 11.1899 8.95322 11.4169 8.95176ZM7.5792 8.95176C7.80763 8.95176 8.00189 8.8719 8.16198 8.71217C8.32207 8.55245 8.40193 8.35819 8.40156 8.12939C8.4012 7.90059 8.32134 7.70652 8.16198 7.54716C8.00262 7.3878 7.80836 7.30776 7.5792 7.30703C7.35003 7.3063 7.15596 7.38634 6.99697 7.54716C6.83798 7.70798 6.75793 7.90206 6.75684 8.12939C6.75574 8.35673 6.83578 8.55099 6.99697 8.71217C7.15815 8.87336 7.35223 8.95322 7.5792 8.95176ZM9.49805 14.9824C8.73964 14.9824 8.02693 14.8384 7.3599 14.5504C6.69287 14.2624 6.11265 13.8719 5.61923 13.3788C5.12582 12.8858 4.73528 12.3055 4.44764 11.6381C4.16 10.9707 4.01599 10.258 4.01563 9.5C4.01526 8.74196 4.15927 8.02925 4.44764 7.36185C4.73602 6.69446 5.12655 6.11424 5.61923 5.62119C6.11192 5.12813 6.69214 4.7376 7.3599 4.44959C8.02766 4.16158 8.74038 4.01758 9.49805 4.01758C10.2557 4.01758 10.9684 4.16158 11.6362 4.44959C12.3039 4.7376 12.8842 5.12813 13.3769 5.62119C13.8695 6.11424 14.2603 6.69446 14.549 7.36185C14.8377 8.02925 14.9816 8.74196 14.9805 9.5C14.9794 10.258 14.8354 10.9707 14.5485 11.6381C14.2615 12.3055 13.871 12.8858 13.3769 13.3788C12.8827 13.8719 12.3025 14.2626 11.6362 14.551C10.9699 14.8393 10.2572 14.9831 9.49805 14.9824ZM9.49805 13.8859C10.7225 13.8859 11.7595 13.461 12.6093 12.6113C13.4591 11.7615 13.884 10.7244 13.884 9.5C13.884 8.27559 13.4591 7.2385 12.6093 6.38872C11.7595 5.53895 10.7225 5.11406 9.49805 5.11406C8.27364 5.11406 7.23655 5.53895 6.38677 6.38872C5.537 7.2385 5.11211 8.27559 5.11211 9.5C5.11211 10.7244 5.537 11.7615 6.38677 12.6113C7.23655 13.461 8.27364 13.8859 9.49805 13.8859Z" fill="#DC022B"/>
<path d="M8.11291 10.5005C8.54712 10.2904 9.00636 10.1853 9.49065 10.1853C9.9837 10.1849 10.4473 10.2922 10.8815 10.5071C11.3157 10.722 11.6653 11.0351 11.9303 11.4463C12.0308 11.5925 12.0445 11.7387 11.9714 11.8849C11.8983 12.0311 11.7796 12.1042 11.6151 12.1042C11.5423 12.1038 11.4762 12.0877 11.4166 12.0559C11.357 12.0241 11.3044 11.9762 11.2587 11.9123C11.0486 11.6283 10.7882 11.4066 10.4775 11.2472C10.1668 11.0879 9.83787 11.008 9.49065 11.0077C9.14343 11.0073 8.81448 11.0872 8.50381 11.2472C8.19314 11.4073 7.93272 11.629 7.72256 11.9123C7.68565 11.9759 7.63759 12.0237 7.57838 12.0559C7.51917 12.0881 7.45301 12.1042 7.37991 12.1042C7.21544 12.1038 7.09666 12.0283 7.02356 11.8777C6.95046 11.7271 6.96416 11.5742 7.06467 11.4188C7.32929 11.0168 7.67871 10.7107 8.11291 10.5005Z" fill="#DC022B"/>
</svg>
