<svg width="18" height="19" viewBox="0 0 18 19" fill="none" xmlns="http://www.w3.org/2000/svg">
<rect width="18" height="19" rx="5" fill="#FAF1EB"/>
<path d="M11.0152 8.92422C11.2551 8.92422 11.4592 8.84034 11.6273 8.6726C11.7954 8.50486 11.8793 8.30084 11.8789 8.06055C11.8785 7.82025 11.7946 7.61643 11.6273 7.44907C11.4599 7.28171 11.2559 7.19764 11.0152 7.19687C10.7746 7.19611 10.5707 7.28017 10.4038 7.44907C10.2368 7.61796 10.1527 7.82179 10.1516 8.06055C10.1504 8.2993 10.2345 8.50332 10.4038 8.6726C10.573 8.84188 10.7769 8.92575 11.0152 8.92422ZM6.98477 8.92422C7.22467 8.92422 7.42869 8.84034 7.59682 8.6726C7.76495 8.50486 7.84882 8.30084 7.84844 8.06055C7.84805 7.82025 7.76418 7.61643 7.59682 7.44907C7.42946 7.28171 7.22544 7.19764 6.98477 7.19687C6.74409 7.19611 6.54026 7.28017 6.37329 7.44907C6.20631 7.61796 6.12225 7.82179 6.12109 8.06055C6.11994 8.2993 6.20401 8.50332 6.37329 8.6726C6.54257 8.84188 6.74639 8.92575 6.98477 8.92422ZM7.70449 11.5152H10.2955C10.4203 11.5152 10.5235 11.4744 10.6053 11.3926C10.687 11.3108 10.7277 11.2078 10.7273 11.0834C10.727 10.959 10.6861 10.856 10.6047 10.7742C10.5233 10.6924 10.4203 10.6516 10.2955 10.6516H7.70449C7.57974 10.6516 7.47667 10.6924 7.3953 10.7742C7.31392 10.856 7.27304 10.959 7.27266 11.0834C7.27227 11.2078 7.31315 11.311 7.3953 11.3932C7.47744 11.4753 7.58051 11.516 7.70449 11.5152ZM9 15.2578C8.2035 15.2578 7.45499 15.1066 6.75445 14.8041C6.05392 14.5016 5.44455 14.0915 4.92635 13.5736C4.40814 13.0558 3.998 12.4465 3.6959 11.7455C3.39381 11.0446 3.24257 10.2961 3.24219 9.5C3.2418 8.70388 3.39304 7.95537 3.6959 7.25445C3.99876 6.55353 4.40891 5.94417 4.92635 5.42635C5.44378 4.90853 6.05315 4.49838 6.75445 4.1959C7.45575 3.89343 8.20427 3.74219 9 3.74219C9.79573 3.74219 10.5442 3.89343 11.2455 4.1959C11.9468 4.49838 12.5562 4.90853 13.0737 5.42635C13.5911 5.94417 14.0014 6.55353 14.3047 7.25445C14.6079 7.95537 14.759 8.70388 14.7578 9.5C14.7567 10.2961 14.6054 11.0446 14.3041 11.7455C14.0028 12.4465 13.5926 13.0558 13.0737 13.5736C12.5547 14.0915 11.9453 14.5018 11.2455 14.8047C10.5458 15.1075 9.79726 15.2586 9 15.2578ZM9 14.1062C10.2859 14.1062 11.3751 13.66 12.2676 12.7676C13.16 11.8751 13.6062 10.7859 13.6062 9.5C13.6062 8.21409 13.16 7.1249 12.2676 6.23244C11.3751 5.33998 10.2859 4.89375 9 4.89375C7.71409 4.89375 6.6249 5.33998 5.73244 6.23244C4.83998 7.1249 4.39375 8.21409 4.39375 9.5C4.39375 10.7859 4.83998 11.8751 5.73244 12.7676C6.6249 13.66 7.71409 14.1062 9 14.1062Z" fill="#C66F37"/>
</svg>
