<svg width="19" height="19" viewBox="0 0 19 19" fill="none" xmlns="http://www.w3.org/2000/svg">
<rect width="19" height="19" rx="5" fill="#EBF2FD"/>
<path d="M9.50391 12.5916C10.0004 12.5916 10.4713 12.4839 10.9165 12.2684C11.3617 12.0529 11.7199 11.7391 11.9912 11.3269C12.0943 11.1676 12.1083 11.0108 12.0334 10.8564C11.9584 10.702 11.8367 10.6246 11.668 10.6242C11.5931 10.6242 11.5252 10.6407 11.4645 10.6737C11.4038 10.7067 11.3546 10.7558 11.3167 10.821C11.1012 11.1114 10.8342 11.3387 10.5157 11.5028C10.1972 11.6669 9.85991 11.7488 9.50391 11.7484C9.1479 11.7481 8.81064 11.6662 8.49211 11.5028C8.17358 11.3394 7.90658 11.1121 7.6911 10.821C7.64426 10.7554 7.5903 10.7063 7.52922 10.6737C7.46813 10.6411 7.40031 10.6246 7.32573 10.6242C7.1571 10.6242 7.03531 10.6992 6.96036 10.8491C6.88541 10.999 6.89947 11.1489 7.00252 11.2987C7.27421 11.7203 7.63264 12.0413 8.07783 12.2616C8.52303 12.482 8.99838 12.592 9.50391 12.5916ZM11.4713 8.93789C11.7055 8.93789 11.9047 8.85601 12.0688 8.69225C12.2329 8.52849 12.3148 8.32931 12.3145 8.09473C12.3141 7.86014 12.2322 7.66115 12.0688 7.49777C11.9054 7.33438 11.7062 7.25231 11.4713 7.25156C11.2363 7.25081 11.0373 7.33288 10.8743 7.49777C10.7113 7.66265 10.6292 7.86164 10.6281 8.09473C10.627 8.32781 10.7091 8.52699 10.8743 8.69225C11.0396 8.85751 11.2386 8.93939 11.4713 8.93789ZM7.53652 8.93789C7.77074 8.93789 7.96991 8.85601 8.13405 8.69225C8.29818 8.52849 8.38006 8.32931 8.37969 8.09473C8.37931 7.86014 8.29743 7.66115 8.13405 7.49777C7.97066 7.33438 7.77148 7.25231 7.53652 7.25156C7.30156 7.25081 7.10258 7.33288 6.93956 7.49777C6.77655 7.66265 6.69448 7.86164 6.69336 8.09473C6.69223 8.32781 6.7743 8.52699 6.93956 8.69225C7.10482 8.85751 7.30381 8.93939 7.53652 8.93789ZM9.50391 15.1211C8.72632 15.1211 7.99558 14.9734 7.31168 14.6781C6.62778 14.3829 6.03288 13.9824 5.52698 13.4769C5.02108 12.9714 4.62068 12.3765 4.32576 11.6922C4.03084 11.008 3.88319 10.2772 3.88281 9.5C3.88244 8.72279 4.03009 7.99205 4.32576 7.30777C4.62142 6.6235 5.02183 6.0286 5.52698 5.52308C6.03213 5.01755 6.62703 4.61714 7.31168 4.32185C7.99633 4.02655 8.72707 3.87891 9.50391 3.87891C10.2807 3.87891 11.0115 4.02655 11.6961 4.32185C12.3808 4.61714 12.9757 5.01755 13.4808 5.52308C13.986 6.0286 14.3866 6.6235 14.6826 7.30777C14.9787 7.99205 15.1261 8.72279 15.125 9.5C15.1239 10.2772 14.9762 11.008 14.6821 11.6922C14.3879 12.3765 13.9875 12.9714 13.4808 13.4769C12.9742 13.9824 12.3793 14.383 11.6961 14.6787C11.013 14.9744 10.2822 15.1218 9.50391 15.1211ZM9.50391 13.9969C10.7593 13.9969 11.8226 13.5612 12.6939 12.69C13.5651 11.8187 14.0008 10.7554 14.0008 9.5C14.0008 8.24462 13.5651 7.1813 12.6939 6.31003C11.8226 5.43876 10.7593 5.00312 9.50391 5.00312C8.24853 5.00312 7.1852 5.43876 6.31394 6.31003C5.44267 7.1813 5.00703 8.24462 5.00703 9.5C5.00703 10.7554 5.44267 11.8187 6.31394 12.69C7.1852 13.5612 8.24853 13.9969 9.50391 13.9969Z" fill="#5999F9"/>
</svg>
