<svg width="12" height="12" viewBox="0 0 12 12" fill="none" xmlns="http://www.w3.org/2000/svg">
<path d="M5.62109 8.71269C6.11762 8.71269 6.58848 8.60496 7.03367 8.38948C7.47886 8.174 7.83711 7.86016 8.10843 7.44795C8.21148 7.28868 8.22553 7.13186 8.15058 6.97746C8.07564 6.82307 7.95385 6.74569 7.78521 6.74531C7.71027 6.74531 7.64244 6.7618 7.58173 6.79478C7.52102 6.82775 7.47174 6.87684 7.4339 6.94205C7.21842 7.23247 6.95142 7.45975 6.63289 7.62389C6.31436 7.78802 5.9771 7.8699 5.62109 7.86953C5.26509 7.86915 4.92782 7.78727 4.6093 7.62389C4.29077 7.4605 4.02377 7.23322 3.80829 6.94205C3.76145 6.87647 3.70749 6.82738 3.6464 6.79478C3.58532 6.76217 3.51749 6.74569 3.44292 6.74531C3.27429 6.74531 3.1525 6.82026 3.07755 6.97015C3.0026 7.12005 3.01665 7.26995 3.11971 7.41984C3.39139 7.84142 3.74983 8.16239 4.19502 8.38274C4.64021 8.60308 5.11557 8.71307 5.62109 8.71269ZM7.58847 5.05898C7.82269 5.05898 8.02186 4.9771 8.186 4.81334C8.35013 4.64958 8.43201 4.45041 8.43164 4.21582C8.43126 3.98123 8.34938 3.78225 8.186 3.61886C8.02261 3.45547 7.82344 3.37341 7.58847 3.37266C7.35351 3.37191 7.15453 3.45397 6.99151 3.61886C6.8285 3.78374 6.74644 3.98273 6.74531 4.21582C6.74419 4.44891 6.82625 4.64808 6.99151 4.81334C7.15677 4.9786 7.35576 5.06048 7.58847 5.05898ZM3.65371 5.05898C3.88792 5.05898 4.0871 4.9771 4.25123 4.81334C4.41537 4.64958 4.49725 4.45041 4.49687 4.21582C4.4965 3.98123 4.41462 3.78225 4.25123 3.61886C4.08785 3.45547 3.88867 3.37341 3.65371 3.37266C3.41875 3.37191 3.21976 3.45397 3.05675 3.61886C2.89374 3.78374 2.81167 3.98273 2.81055 4.21582C2.80942 4.44891 2.89149 4.64808 3.05675 4.81334C3.22201 4.9786 3.421 5.06048 3.65371 5.05898ZM5.62109 11.2422C4.84351 11.2422 4.11277 11.0945 3.42887 10.7992C2.74497 10.5039 2.15007 10.1035 1.64417 9.59802C1.13827 9.09249 0.737863 8.49759 0.442943 7.81332C0.148023 7.12904 0.000375451 6.3983 7.1153e-07 5.62109C-0.000374028 4.84388 0.147273 4.11314 0.442943 3.42887C0.738612 2.74459 1.13902 2.14969 1.64417 1.64417C2.14932 1.13865 2.74422 0.738237 3.42887 0.442942C4.11352 0.147647 4.84426 0 5.62109 0C6.39793 0 7.12867 0.147647 7.81332 0.442942C8.49797 0.738237 9.09287 1.13865 9.59802 1.64417C10.1032 2.14969 10.5038 2.74459 10.7998 3.42887C11.0958 4.11314 11.2433 4.84388 11.2422 5.62109C11.2411 6.3983 11.0934 7.12904 10.7992 7.81332C10.5051 8.49759 10.1047 9.09249 9.59802 9.59802C9.09137 10.1035 8.49647 10.5041 7.81332 10.7998C7.13017 11.0955 6.39943 11.2429 5.62109 11.2422ZM5.62109 10.118C6.87647 10.118 7.93979 9.68233 8.81106 8.81106C9.68233 7.93979 10.118 6.87647 10.118 5.62109C10.118 4.36572 9.68233 3.30239 8.81106 2.43112C7.93979 1.55985 6.87647 1.12422 5.62109 1.12422C4.36572 1.12422 3.30239 1.55985 2.43112 2.43112C1.55985 3.30239 1.12422 4.36572 1.12422 5.62109C1.12422 6.87647 1.55985 7.93979 2.43112 8.81106C3.30239 9.68233 4.36572 10.118 5.62109 10.118Z" fill="#5999F9"/>
</svg>
