<svg width="63" height="15" viewBox="0 0 63 15" fill="none" xmlns="http://www.w3.org/2000/svg">
<rect width="63" height="15" rx="7.5" fill="white"/>
<path d="M6.39531 10L8.56331 4.4H9.44331L11.5953 10H10.6753L9.39531 6.624C9.37931 6.58667 9.34731 6.496 9.29931 6.352C9.25665 6.208 9.20598 6.048 9.14731 5.872C9.08865 5.696 9.03531 5.536 8.98731 5.392C8.93931 5.24267 8.90731 5.14667 8.89131 5.104L9.07531 5.096C9.04331 5.18667 9.00331 5.30133 8.95531 5.44C8.91265 5.57867 8.86465 5.72533 8.81131 5.88C8.76331 6.03467 8.71531 6.18133 8.66731 6.32C8.61931 6.45333 8.57931 6.56533 8.54731 6.656L7.27531 10H6.39531ZM7.35531 8.608L7.67531 7.776H10.2193L10.5873 8.608H7.35531ZM12.3729 10V9.2H13.2769V5.2H12.3729V4.4H15.0449V5.2H14.1409V9.2H15.0449V10H12.3729ZM18.6434 10V4.4H20.9234C21.2274 4.4 21.502 4.47733 21.7474 4.632C21.998 4.78133 22.198 4.98667 22.3474 5.248C22.4967 5.50933 22.5714 5.8 22.5714 6.12C22.5714 6.44 22.4967 6.73067 22.3474 6.992C22.198 7.25333 21.998 7.464 21.7474 7.624C21.502 7.77867 21.2274 7.856 20.9234 7.856H19.5074V10H18.6434ZM19.5074 7.024H20.9074C21.0514 7.024 21.182 6.984 21.2994 6.904C21.4167 6.81867 21.51 6.70933 21.5794 6.576C21.654 6.43733 21.6914 6.28533 21.6914 6.12C21.6914 5.95467 21.654 5.80533 21.5794 5.672C21.51 5.53867 21.4167 5.432 21.2994 5.352C21.182 5.272 21.0514 5.232 20.9074 5.232H19.5074V7.024ZM25.3156 10.08C24.9049 10.08 24.5369 9.98667 24.2116 9.8C23.8916 9.608 23.6382 9.34933 23.4516 9.024C23.2649 8.69333 23.1716 8.31733 23.1716 7.896C23.1716 7.47467 23.2649 7.10133 23.4516 6.776C23.6382 6.44533 23.8916 6.18667 24.2116 6C24.5369 5.808 24.9049 5.712 25.3156 5.712C25.7209 5.712 26.0836 5.808 26.4036 6C26.7289 6.18667 26.9849 6.44533 27.1716 6.776C27.3582 7.10133 27.4516 7.47467 27.4516 7.896C27.4516 8.31733 27.3582 8.69333 27.1716 9.024C26.9849 9.34933 26.7289 9.608 26.4036 9.8C26.0836 9.98667 25.7209 10.08 25.3156 10.08ZM25.3156 9.328C25.5662 9.328 25.7902 9.26667 25.9876 9.144C26.1849 9.016 26.3396 8.84533 26.4516 8.632C26.5636 8.41333 26.6169 8.168 26.6116 7.896C26.6169 7.61867 26.5636 7.37333 26.4516 7.16C26.3396 6.94133 26.1849 6.77067 25.9876 6.648C25.7902 6.52533 25.5662 6.464 25.3156 6.464C25.0649 6.464 24.8382 6.528 24.6356 6.656C24.4382 6.77867 24.2836 6.94933 24.1716 7.168C24.0596 7.38133 24.0062 7.624 24.0116 7.896C24.0062 8.168 24.0596 8.41333 24.1716 8.632C24.2836 8.84533 24.4382 9.016 24.6356 9.144C24.8382 9.26667 25.0649 9.328 25.3156 9.328ZM29.2252 10L27.7932 5.8L28.6252 5.792L29.6492 8.936L29.4652 8.92L30.5772 6.464H31.0732L32.1932 8.928L31.9772 8.944L33.0092 5.8H33.8412L32.4252 10H31.8572L30.6892 7.328L30.8732 7.352L29.7852 10H29.2252ZM36.4344 10.08C36.0024 10.08 35.6184 9.98933 35.2824 9.808C34.9518 9.62133 34.6904 9.368 34.4984 9.048C34.3118 8.728 34.2184 8.36 34.2184 7.944C34.2184 7.61333 34.2718 7.312 34.3784 7.04C34.4851 6.768 34.6318 6.53333 34.8184 6.336C35.0104 6.13333 35.2371 5.97867 35.4984 5.872C35.7651 5.76 36.0531 5.704 36.3624 5.704C36.6344 5.704 36.8878 5.75733 37.1224 5.864C37.3571 5.96533 37.5598 6.10667 37.7304 6.288C37.9064 6.46933 38.0398 6.68533 38.1304 6.936C38.2264 7.18133 38.2718 7.45067 38.2664 7.744L38.2584 8.096H34.8264L34.6424 7.44H37.5464L37.4264 7.576V7.384C37.4104 7.208 37.3518 7.05067 37.2504 6.912C37.1491 6.77333 37.0211 6.664 36.8664 6.584C36.7118 6.504 36.5438 6.464 36.3624 6.464C36.0744 6.464 35.8318 6.52 35.6344 6.632C35.4371 6.73867 35.2878 6.89867 35.1864 7.112C35.0851 7.32 35.0344 7.57867 35.0344 7.888C35.0344 8.18133 35.0958 8.43733 35.2184 8.656C35.3411 8.86933 35.5144 9.03467 35.7384 9.152C35.9624 9.26933 36.2211 9.328 36.5144 9.328C36.7224 9.328 36.9144 9.29333 37.0904 9.224C37.2718 9.15467 37.4664 9.02933 37.6744 8.848L38.0904 9.432C37.9624 9.56 37.8051 9.672 37.6184 9.768C37.4371 9.864 37.2424 9.94133 37.0344 10C36.8318 10.0533 36.6318 10.08 36.4344 10.08ZM39.1619 10V5.8H39.9939V7.12L39.9139 6.8C39.9726 6.59733 40.0713 6.41333 40.2099 6.248C40.3539 6.08267 40.5166 5.952 40.6979 5.856C40.8846 5.76 41.0766 5.712 41.2739 5.712C41.3646 5.712 41.4499 5.72 41.5299 5.736C41.6153 5.752 41.6819 5.77067 41.7299 5.792L41.5139 6.688C41.4499 6.66133 41.3779 6.64 41.2979 6.624C41.2233 6.60267 41.1486 6.592 41.0739 6.592C40.9299 6.592 40.7913 6.62133 40.6579 6.68C40.5299 6.73333 40.4153 6.81067 40.3139 6.912C40.2179 7.008 40.1406 7.12267 40.0819 7.256C40.0233 7.384 39.9939 7.52533 39.9939 7.68V10H39.1619ZM44.1688 10.08C43.7368 10.08 43.3528 9.98933 43.0168 9.808C42.6861 9.62133 42.4248 9.368 42.2328 9.048C42.0461 8.728 41.9528 8.36 41.9528 7.944C41.9528 7.61333 42.0061 7.312 42.1128 7.04C42.2195 6.768 42.3661 6.53333 42.5528 6.336C42.7448 6.13333 42.9715 5.97867 43.2328 5.872C43.4995 5.76 43.7875 5.704 44.0968 5.704C44.3688 5.704 44.6221 5.75733 44.8568 5.864C45.0915 5.96533 45.2941 6.10667 45.4648 6.288C45.6408 6.46933 45.7741 6.68533 45.8648 6.936C45.9608 7.18133 46.0061 7.45067 46.0008 7.744L45.9928 8.096H42.5608L42.3768 7.44H45.2808L45.1608 7.576V7.384C45.1448 7.208 45.0861 7.05067 44.9848 6.912C44.8835 6.77333 44.7555 6.664 44.6008 6.584C44.4461 6.504 44.2781 6.464 44.0968 6.464C43.8088 6.464 43.5661 6.52 43.3688 6.632C43.1715 6.73867 43.0221 6.89867 42.9208 7.112C42.8195 7.32 42.7688 7.57867 42.7688 7.888C42.7688 8.18133 42.8301 8.43733 42.9528 8.656C43.0755 8.86933 43.2488 9.03467 43.4728 9.152C43.6968 9.26933 43.9555 9.328 44.2488 9.328C44.4568 9.328 44.6488 9.29333 44.8248 9.224C45.0061 9.15467 45.2008 9.02933 45.4088 8.848L45.8248 9.432C45.6968 9.56 45.5395 9.672 45.3528 9.768C45.1715 9.864 44.9768 9.94133 44.7688 10C44.5661 10.0533 44.3661 10.08 44.1688 10.08ZM48.6483 10.08C48.2643 10.08 47.9203 9.98667 47.6163 9.8C47.3176 9.608 47.0803 9.34933 46.9043 9.024C46.7283 8.69333 46.6403 8.31733 46.6403 7.896C46.6403 7.47467 46.7256 7.10133 46.8963 6.776C47.0723 6.44533 47.3096 6.18667 47.6083 6C47.907 5.808 48.2456 5.712 48.6243 5.712C48.8323 5.712 49.0323 5.74667 49.2243 5.816C49.4216 5.88 49.5976 5.97067 49.7523 6.088C49.907 6.2 50.027 6.32533 50.1123 6.464C50.203 6.59733 50.2483 6.73333 50.2483 6.872L50.0083 6.888V4.08H50.8323V10H50.0083V9H50.1683C50.1683 9.128 50.1256 9.256 50.0403 9.384C49.955 9.50667 49.8403 9.62133 49.6963 9.728C49.5576 9.83467 49.395 9.92 49.2083 9.984C49.027 10.048 48.8403 10.08 48.6483 10.08ZM48.7603 9.368C49.011 9.368 49.2323 9.304 49.4243 9.176C49.6163 9.048 49.7656 8.87467 49.8723 8.656C49.9843 8.432 50.0403 8.17867 50.0403 7.896C50.0403 7.61333 49.9843 7.36267 49.8723 7.144C49.7656 6.92 49.6163 6.744 49.4243 6.616C49.2323 6.488 49.011 6.424 48.7603 6.424C48.5096 6.424 48.2883 6.488 48.0963 6.616C47.9043 6.744 47.7523 6.92 47.6403 7.144C47.5336 7.36267 47.4803 7.61333 47.4803 7.896C47.4803 8.17867 47.5336 8.432 47.6403 8.656C47.7523 8.87467 47.9043 9.048 48.0963 9.176C48.2883 9.304 48.5096 9.368 48.7603 9.368Z" fill="#352764"/>
<path d="M59.1833 4.13603C58.92 3.52543 58.0219 3.54512 57.7998 4.19508L57.5004 5.07198L57.4704 5.15221C57.3902 5.34894 57.2688 5.5262 57.1143 5.67202C56.9599 5.81785 56.7759 5.92885 56.5749 5.99754L55.6983 6.29689L55.6389 6.31992C55.0283 6.58288 55.048 7.48095 55.6983 7.70305L56.5749 8.00241L56.6551 8.0325C56.8519 8.11268 57.0292 8.23414 57.175 8.38868C57.3208 8.54323 57.4318 8.72725 57.5004 8.92834L57.7998 9.80487L57.8228 9.86429C58.0858 10.4745 58.9839 10.4548 59.206 9.80487L59.5053 8.92797L59.5354 8.84774C59.6156 8.65097 59.7371 8.47369 59.8916 8.32786C60.0461 8.18203 60.2302 8.07106 60.4313 8.00241L61.3078 7.70268L61.3672 7.6804C61.9774 7.41707 61.9578 6.519 61.3078 6.29689L60.4313 5.99754L60.3507 5.96745C60.1539 5.88731 59.9767 5.7659 59.8308 5.61143C59.685 5.45695 59.574 5.273 59.5053 5.07198L59.2056 4.19545L59.1833 4.13603Z" fill="#352764"/>
</svg>
