<svg width="28" height="28" viewBox="0 0 28 28" fill="none" xmlns="http://www.w3.org/2000/svg">
<rect width="27.0273" height="27.0273" rx="13.5137" fill="#4E156B"/>
<path d="M7 13.25C6.58579 13.25 6.25 13.5858 6.25 14C6.25 14.4142 6.58579 14.75 7 14.75L7 14L7 13.25ZM19.671 14.5303C19.9638 14.2374 19.9638 13.7626 19.671 13.4697L14.898 8.6967C14.6051 8.40381 14.1302 8.40381 13.8373 8.6967C13.5444 8.98959 13.5444 9.46447 13.8373 9.75736L18.08 14L13.8373 18.2426C13.5444 18.5355 13.5444 19.0104 13.8373 19.3033C14.1302 19.5962 14.6051 19.5962 14.898 19.3033L19.671 14.5303ZM7 14L7 14.75L19.1406 14.75L19.1406 14L19.1406 13.25L7 13.25L7 14Z" fill="#FFCC00"/>
</svg>
