<svg width="14" height="25" viewBox="0 0 14 25" fill="none" xmlns="http://www.w3.org/2000/svg">
<path d="M6.54699 0.154418C6.77072 0.0278233 6.92741 0.141381 7.08757 0.301539C8.51069 1.72531 9.45994 3.43207 10.0866 5.32803C10.6012 6.88441 10.8517 8.48391 10.791 10.1252C10.7829 10.3452 10.846 10.4985 10.9901 10.6596C12.3737 12.2026 13.1517 14.0133 13.3503 16.074C13.3745 16.3263 13.3794 16.5802 13.385 16.8335C13.3889 16.9982 13.335 17.1397 13.1749 17.2195C13.0102 17.3012 12.8703 17.26 12.7278 17.1521C11.9979 16.6 11.2635 16.0532 10.4987 15.4805C10.4889 15.6452 10.4808 15.7848 10.4723 15.924C10.453 16.227 10.3265 16.3528 10.0272 16.3528C7.8368 16.3539 5.64611 16.3533 3.45541 16.3522C3.16552 16.3518 3.03674 16.2256 3.01775 15.9348C3.00859 15.7936 3.00106 15.6521 2.99091 15.4798C2.62261 15.754 2.28241 16.006 1.94319 16.2602C1.53305 16.5677 1.12488 16.8772 0.714743 17.1847C0.589905 17.2781 0.450027 17.3062 0.308506 17.2333C0.162409 17.1585 0.0999735 17.03 0.101592 16.8637C0.118429 15.1302 0.559493 13.5131 1.47283 12.0402C1.78686 11.534 2.17672 11.0742 2.54599 10.6042C2.64795 10.4742 2.70055 10.3575 2.69596 10.1895C2.61531 7.35333 3.32787 4.72671 4.81731 2.31685C5.13363 1.80508 5.45775 1.33994 5.82106 0.842032C6.00251 0.59337 6.27484 0.308406 6.54699 0.154418ZM9.75061 15.5899C9.77052 15.2432 9.79173 14.8873 9.81196 14.531C9.8919 13.1273 9.99865 11.7243 10.0466 10.3193C10.1593 7.02425 9.24102 4.05498 7.1635 1.46896C7.0357 1.30979 6.88959 1.16499 6.7157 0.972801C6.32291 1.48522 5.91998 1.94699 5.58863 2.45484C4.14002 4.67417 3.40783 7.12038 3.4316 9.7683C3.44382 11.1498 3.56782 12.5306 3.64278 13.9115C3.67323 14.4746 3.70727 15.038 3.73935 15.5884C5.74212 15.5886 7.73542 15.5891 9.75127 15.5893L9.75061 15.5899ZM2.76308 11.469C1.66671 12.8628 1.04295 14.39 0.873484 16.1415C1.55748 15.6294 2.20879 15.1448 2.85357 14.6523C2.90357 14.6141 2.9333 14.5157 2.9297 14.4474C2.89499 13.7277 2.85211 13.009 2.8112 12.2897C2.79679 12.0322 2.78141 11.7743 2.76308 11.469ZM12.6012 16.1321C12.5674 14.7199 11.5089 12.128 10.7255 11.5165C10.7212 11.5665 10.7163 11.6113 10.7141 11.6567C10.6694 12.4388 10.6498 13.2238 10.5705 14.0026C10.5277 14.4226 10.581 14.7439 10.9951 14.9286C11.0052 14.9328 11.0127 14.9436 11.0219 14.9501C11.5416 15.3391 12.0613 15.7281 12.6012 16.1321Z" fill="#4E156B"/>
<path d="M6.40238 24.6676C6.19317 24.2467 5.98004 23.8276 5.77509 23.4044C5.31549 22.4566 4.86863 21.5051 4.56263 20.4913C4.26481 19.5046 4.70919 18.4451 5.57719 17.9262C6.46316 17.3965 7.59986 17.5208 8.33495 18.2565C8.94159 18.8631 9.19364 19.6073 8.92834 20.4407C8.69309 21.1787 8.40131 21.9012 8.09056 22.6114C7.80498 23.2637 7.46318 23.8918 7.13968 24.5278C6.97924 24.8438 6.90603 24.8778 6.57398 24.8392C6.51678 24.782 6.45958 24.7248 6.40238 24.6676ZM6.74513 23.7012C6.91995 23.346 7.08202 23.0296 7.23233 22.7081C7.60516 21.9116 7.98878 21.1181 8.22271 20.2658C8.39227 19.6471 8.21117 19.1229 7.73397 18.713C7.27638 18.3195 6.74365 18.241 6.18088 18.4527C5.5315 18.6968 4.99362 19.4641 5.29209 20.3809C5.6638 21.5225 6.19694 22.5916 6.74513 23.7012Z" fill="#4E156B"/>
<path d="M5.43141 8.42169C4.71854 7.6951 4.72857 6.5169 5.4534 5.80841C6.18182 5.09698 7.36133 5.10984 8.06603 5.83741C8.77105 6.56466 8.76136 7.73076 8.0447 8.43827C7.32183 9.15198 6.14036 9.14436 5.43141 8.42169ZM7.51781 7.9153C7.95996 7.48361 7.9648 6.7878 7.52878 6.34851C7.09831 5.91478 6.41296 5.90981 5.97408 6.33759C5.53258 6.76797 5.52741 7.46541 5.96311 7.90438C6.39325 8.33778 7.0799 8.34275 7.51781 7.9153Z" fill="#4E156B"/>
<path d="M6.54699 0.154418C6.77072 0.0278233 6.92741 0.141381 7.08757 0.301539C8.51069 1.72531 9.45994 3.43207 10.0866 5.32803C10.6012 6.88441 10.8517 8.48391 10.791 10.1252C10.7829 10.3452 10.846 10.4985 10.9901 10.6596C12.3737 12.2026 13.1517 14.0133 13.3503 16.074C13.3745 16.3263 13.3794 16.5802 13.385 16.8335C13.3889 16.9982 13.335 17.1397 13.1749 17.2195C13.0102 17.3012 12.8703 17.26 12.7278 17.1521C11.9979 16.6 11.2635 16.0532 10.4987 15.4805C10.4889 15.6452 10.4808 15.7848 10.4723 15.924C10.453 16.227 10.3265 16.3528 10.0272 16.3528C7.8368 16.3539 5.64611 16.3533 3.45541 16.3522C3.16552 16.3518 3.03674 16.2256 3.01775 15.9348C3.00859 15.7936 3.00106 15.6521 2.99091 15.4798C2.62261 15.754 2.28241 16.006 1.94319 16.2602C1.53305 16.5677 1.12488 16.8772 0.714743 17.1847C0.589905 17.2781 0.450027 17.3062 0.308506 17.2333C0.162409 17.1585 0.0999735 17.03 0.101592 16.8637C0.118429 15.1302 0.559493 13.5131 1.47283 12.0402C1.78686 11.534 2.17672 11.0742 2.54599 10.6042C2.64795 10.4742 2.70055 10.3575 2.69596 10.1895C2.61531 7.35333 3.32787 4.72671 4.81731 2.31685C5.13363 1.80508 5.45775 1.33994 5.82106 0.842032C6.00251 0.59337 6.27484 0.308406 6.54699 0.154418ZM9.75061 15.5899C9.77052 15.2432 9.79173 14.8873 9.81196 14.531C9.8919 13.1273 9.99865 11.7243 10.0466 10.3193C10.1593 7.02425 9.24102 4.05498 7.1635 1.46896C7.0357 1.30979 6.88959 1.16499 6.7157 0.972801C6.32291 1.48522 5.91998 1.94699 5.58863 2.45484C4.14002 4.67417 3.40783 7.12038 3.4316 9.7683C3.44382 11.1498 3.56782 12.5306 3.64278 13.9115C3.67323 14.4746 3.70727 15.038 3.73935 15.5884C5.74212 15.5886 7.73542 15.5891 9.75127 15.5893L9.75061 15.5899ZM2.76308 11.469C1.66671 12.8628 1.04295 14.39 0.873484 16.1415C1.55748 15.6294 2.20879 15.1448 2.85357 14.6523C2.90357 14.6141 2.9333 14.5157 2.9297 14.4474C2.89499 13.7277 2.85211 13.009 2.8112 12.2897C2.79679 12.0322 2.78141 11.7743 2.76308 11.469ZM12.6012 16.1321C12.5674 14.7199 11.5089 12.128 10.7255 11.5165C10.7212 11.5665 10.7163 11.6113 10.7141 11.6567C10.6694 12.4388 10.6498 13.2238 10.5705 14.0026C10.5277 14.4226 10.581 14.7439 10.9951 14.9286C11.0052 14.9328 11.0127 14.9436 11.0219 14.9501C11.5416 15.3391 12.0613 15.7281 12.6012 16.1321Z" stroke="#4E156B" stroke-width="0.2"/>
<path d="M6.40238 24.6676C6.19317 24.2467 5.98004 23.8276 5.77509 23.4044C5.31549 22.4566 4.86863 21.5051 4.56263 20.4913C4.26481 19.5046 4.70919 18.4451 5.57719 17.9262C6.46316 17.3965 7.59986 17.5208 8.33495 18.2565C8.94159 18.8631 9.19364 19.6073 8.92834 20.4407C8.69309 21.1787 8.40131 21.9012 8.09056 22.6114C7.80498 23.2637 7.46318 23.8918 7.13968 24.5278C6.97924 24.8438 6.90603 24.8778 6.57398 24.8392C6.51678 24.782 6.45958 24.7248 6.40238 24.6676ZM6.74513 23.7012C6.91995 23.346 7.08202 23.0296 7.23233 22.7081C7.60516 21.9116 7.98878 21.1181 8.22271 20.2658C8.39227 19.6471 8.21117 19.1229 7.73397 18.713C7.27638 18.3195 6.74365 18.241 6.18088 18.4527C5.5315 18.6968 4.99362 19.4641 5.29209 20.3809C5.6638 21.5225 6.19694 22.5916 6.74513 23.7012Z" stroke="#4E156B" stroke-width="0.2"/>
<path d="M5.43141 8.42169C4.71854 7.6951 4.72857 6.5169 5.4534 5.80841C6.18182 5.09698 7.36133 5.10984 8.06603 5.83741C8.77105 6.56466 8.76136 7.73076 8.0447 8.43827C7.32183 9.15198 6.14036 9.14436 5.43141 8.42169ZM7.51781 7.9153C7.95996 7.48361 7.9648 6.7878 7.52878 6.34851C7.09831 5.91478 6.41296 5.90981 5.97408 6.33759C5.53258 6.76797 5.52741 7.46541 5.96311 7.90438C6.39325 8.33778 7.0799 8.34275 7.51781 7.9153Z" stroke="#4E156B" stroke-width="0.2"/>
</svg>
