<svg width="203" height="41" viewBox="0 0 203 41" fill="none" xmlns="http://www.w3.org/2000/svg">
<path d="M6.24971 19.837C5.94838 19.6969 5.60938 19.9178 5.60938 20.2518V27.8114C5.60938 28.3933 5.94838 28.9267 6.48109 29.1638L17.0009 33.943C17.0762 33.9754 17.1031 34.0777 17.0439 34.137C16.8933 34.304 16.4789 34.595 15.3328 34.8752C14.7947 35.0045 14.8646 35.3385 14.9023 35.5325C14.9884 35.9636 15.435 36.3192 15.6987 36.4485C16.0807 36.6371 18.6797 37.219 20.8644 36.5886C21.9137 36.2815 21.8007 36.1845 22.3657 36.4323C22.9468 36.691 27.9565 38.9917 30.082 39.9723C30.6901 40.2525 31.3842 40.2525 31.9869 39.9723L55.3564 29.2931C55.9376 29.0291 56.3142 28.4418 56.3142 27.8006C56.3142 27.8006 56.3573 23.641 56.2712 21.1516C56.2281 19.9824 55.6093 19.9663 54.899 20.2734C52.9619 21.1193 50.2337 22.4879 50.2337 22.4879C50.2337 22.4879 49.7279 22.698 49.8678 22.9136C50.0077 23.1291 51.4014 25.0688 48.5656 26.6475C47.3495 27.3264 46.2733 27.3156 44.9389 27.2995C43.6044 27.2833 42.4152 26.7876 41.3013 27.0193C40.1875 27.251 39.9184 27.4665 39.4018 27.7359C38.8853 27.9999 33.359 30.6509 33.359 30.6509C33.359 30.6509 32.2882 31.2166 31.3304 31.2274C30.3726 31.2382 29.6139 30.9526 28.683 30.4084C27.6713 29.8157 9.88186 21.5234 6.26047 19.837H6.24971Z" fill="url(#paint0_linear_6404_3034)"/>
<path d="M0.544823 13.7053L29.8442 0.305105C30.732 -0.0990032 31.7544 -0.104391 32.6423 0.305105L61.8986 13.6515C62.6573 13.9963 62.6627 15.0793 61.8986 15.4295L47.7682 21.906C47.7682 21.906 46.4229 22.3209 48.0426 23.2908C48.6507 23.6518 48.6076 24.0936 48.457 24.4115C48.2094 24.9395 47.3377 25.2628 46.2454 25.3329C43.5065 25.5161 42.7854 25.0958 41.5478 24.9503C41.042 24.8911 40.4985 25.182 38.6797 26.0549C37.2323 26.7553 32.8414 28.722 32.8414 28.722C31.819 29.1908 30.6459 29.1854 29.6236 28.722L0.544823 15.4026C-0.181608 15.0739 -0.181608 14.0394 0.544823 13.7053Z" fill="url(#paint1_linear_6404_3034)"/>
<path d="M73.9375 13.7269H79.3292V27.4612H82.348V13.7269H87.7451V11.1675H73.9375V13.7269Z" fill="#2A2765"/>
<path d="M91.7893 16.8412V15.0308H89.0234V27.4612H91.9076V21.4588C91.9076 20.1549 92.2305 19.1851 92.8816 18.5493C93.5327 17.9135 94.4152 17.5956 95.5344 17.5956C95.6259 17.5956 95.7281 17.5956 95.8357 17.6063C95.9434 17.6171 96.051 17.6279 96.1586 17.6441V14.8746C94.9963 14.8746 94.0116 15.0955 93.2045 15.5373C92.6072 15.866 92.139 16.3024 91.7893 16.8466V16.8412Z" fill="#2A2765"/>
<path d="M107.426 21.3188C107.426 22.1432 107.286 22.8328 107.006 23.3878C106.727 23.9482 106.334 24.3631 105.823 24.6433C105.311 24.9234 104.714 25.0635 104.031 25.0635C103.116 25.0635 102.406 24.7887 101.894 24.2391C101.383 23.6896 101.13 22.8598 101.13 21.7606V15.0363H98.2031V22.1378C98.2031 23.377 98.4291 24.4062 98.8865 25.2198C99.3439 26.0334 99.9735 26.6369 100.781 27.0356C101.588 27.4289 102.519 27.6283 103.568 27.6283C104.531 27.6283 105.414 27.4127 106.221 26.9763C106.759 26.6853 107.205 26.3082 107.571 25.861V27.4666H110.337V15.0363H107.431V21.3188H107.426Z" fill="#2A2765"/>
<path d="M117.008 11.1675H113.984V27.4612H125.516V24.9018H117.008V11.1675Z" fill="#2A2765"/>
<path d="M135.697 15.6719C134.75 15.1385 133.674 14.8691 132.469 14.8691C131.263 14.8691 130.123 15.1439 129.154 15.6935C128.186 16.2431 127.427 16.9974 126.878 17.9511C126.329 18.9048 126.055 20.004 126.055 21.2432C126.055 22.4825 126.34 23.5817 126.905 24.5354C127.47 25.4891 128.266 26.2434 129.299 26.793C130.327 27.3426 131.533 27.6174 132.915 27.6174C134.002 27.6174 134.966 27.445 135.81 27.1055C136.655 26.7661 137.365 26.265 137.936 25.6184L136.354 23.8026C135.918 24.2552 135.423 24.5946 134.869 24.8263C134.309 25.058 133.685 25.1766 132.985 25.1766C132.162 25.1766 131.441 25.0203 130.822 24.697C130.203 24.3791 129.725 23.9319 129.391 23.3608C129.181 22.9998 129.047 22.601 128.966 22.1754H138.7C138.716 22.0515 138.727 21.906 138.738 21.7443C138.743 21.5827 138.748 21.448 138.748 21.3348C138.748 20.0148 138.479 18.8779 137.936 17.9134C137.392 16.9489 136.65 16.2054 135.703 15.6666L135.697 15.6719ZM129.326 18.991C129.622 18.4307 130.042 17.9996 130.591 17.6979C131.14 17.3961 131.764 17.2453 132.463 17.2453C133.163 17.2453 133.798 17.3961 134.325 17.6979C134.853 17.9996 135.267 18.4253 135.568 18.9802C135.778 19.3682 135.907 19.7885 135.966 20.2464H128.939C129.003 19.7885 129.127 19.3682 129.332 18.991H129.326Z" fill="#2A2765"/>
<path d="M145.475 14.8691C144.485 14.8691 143.532 15.0038 142.617 15.2624C141.703 15.5265 140.906 15.9144 140.223 16.4263L141.364 18.5438C141.843 18.1559 142.418 17.8541 143.086 17.6386C143.753 17.4231 144.425 17.3153 145.109 17.3153C146.163 17.3153 146.949 17.5524 147.466 18.0265C147.982 18.5007 148.246 19.1634 148.246 20.0148V20.2033H145.017C143.764 20.2033 142.752 20.365 141.993 20.6937C141.234 21.0169 140.686 21.4642 140.352 22.0191C140.018 22.5795 139.852 23.2045 139.852 23.905C139.852 24.6054 140.04 25.2574 140.422 25.8231C140.804 26.3889 141.342 26.8307 142.036 27.1486C142.736 27.4665 143.548 27.6282 144.479 27.6282C145.593 27.6282 146.508 27.4288 147.223 27.0247C147.719 26.7445 148.101 26.3835 148.386 25.9471V27.4665H151.13V20.1818C151.13 18.3822 150.64 17.0459 149.666 16.1784C148.687 15.3109 147.293 14.8745 145.48 14.8745L145.475 14.8691ZM146.997 25.0149C146.432 25.3382 145.792 25.5052 145.082 25.5052C144.372 25.5052 143.758 25.349 143.338 25.0419C142.919 24.7294 142.709 24.3199 142.709 23.808C142.709 23.3284 142.881 22.9297 143.231 22.6118C143.581 22.2939 144.242 22.1323 145.216 22.1323H148.24V23.5763C147.977 24.2121 147.562 24.6916 146.997 25.0203V25.0149Z" fill="#2A2765"/>
<path d="M163.98 16.6795C163.571 16.1892 163.092 15.7905 162.527 15.5103C161.682 15.0846 160.735 14.8691 159.68 14.8691C158.486 14.8691 157.415 15.117 156.473 15.6127C155.526 16.1084 154.778 16.8088 154.23 17.7194C153.681 18.6246 153.406 19.6861 153.406 20.8984C153.406 22.1107 153.681 23.1399 154.23 24.0397C154.778 24.9395 155.526 25.6399 156.473 26.1464C157.42 26.6529 158.486 26.9008 159.68 26.9008C160.735 26.9008 161.682 26.6852 162.527 26.2488C163.027 25.9902 163.463 25.6453 163.84 25.2251V25.8986C163.84 27.1702 163.522 28.1239 162.888 28.7489C162.253 29.3793 161.262 29.6918 159.912 29.6918C159.029 29.6918 158.174 29.5517 157.356 29.2715C156.538 28.9913 155.855 28.625 155.311 28.1777L154.009 30.3438C154.719 30.9311 155.618 31.3783 156.694 31.68C157.77 31.9817 158.889 32.1326 160.052 32.1326C162.22 32.1326 163.878 31.5992 165.024 30.5377C166.17 29.4763 166.746 27.8167 166.746 25.5699V15.0254H163.98V16.6741V16.6795ZM163.409 22.725C163.092 23.2584 162.645 23.6787 162.075 23.9804C161.499 24.2821 160.854 24.433 160.122 24.433C159.39 24.433 158.739 24.2821 158.158 23.9804C157.577 23.6787 157.13 23.2584 156.807 22.725C156.49 22.1916 156.333 21.5827 156.333 20.8984C156.333 20.2141 156.49 19.5622 156.807 19.0341C157.125 18.5061 157.577 18.0966 158.158 17.8002C158.739 17.5039 159.395 17.3584 160.122 17.3584C160.848 17.3584 161.499 17.5039 162.075 17.8002C162.645 18.0966 163.092 18.5061 163.409 19.0341C163.727 19.5622 163.883 20.1818 163.883 20.8984C163.883 21.615 163.727 22.1916 163.409 22.725Z" fill="#2A2765"/>
<path d="M179.228 21.3188C179.228 22.1432 179.088 22.8329 178.809 23.3878C178.529 23.9482 178.136 24.3631 177.625 24.6433C177.114 24.9234 176.516 25.0635 175.833 25.0635C174.918 25.0635 174.208 24.7887 173.697 24.2391C173.186 23.6896 172.927 22.8598 172.927 21.7606V15.0363H170V22.1378C170 23.377 170.226 24.4062 170.683 25.2198C171.141 26.0334 171.77 26.6369 172.577 27.0356C173.385 27.4289 174.316 27.6283 175.365 27.6283C176.328 27.6283 177.21 27.4127 178.012 26.9763C178.55 26.6853 178.997 26.3082 179.363 25.861V27.4666H182.129V15.0363H179.223V21.3188H179.228Z" fill="#2A2765"/>
<path d="M196.36 17.9188C195.817 16.9543 195.074 16.2107 194.127 15.6719C193.18 15.1385 192.104 14.8691 190.898 14.8691C189.693 14.8691 188.552 15.1439 187.584 15.6935C186.615 16.2431 185.857 16.9974 185.308 17.9511C184.759 18.9048 184.484 20.004 184.484 21.2432C184.484 22.4825 184.77 23.5817 185.335 24.5354C185.9 25.4891 186.696 26.2434 187.729 26.793C188.757 27.3426 189.962 27.6174 191.345 27.6174C192.427 27.6174 193.395 27.445 194.24 27.1055C195.085 26.7661 195.795 26.265 196.366 25.6184L194.784 23.8026C194.348 24.2552 193.853 24.5947 193.298 24.8263C192.739 25.058 192.115 25.1766 191.415 25.1766C190.592 25.1766 189.871 25.0203 189.252 24.697C188.633 24.3791 188.154 23.9319 187.821 23.3608C187.611 22.9998 187.476 22.601 187.395 22.1754H197.13C197.146 22.0515 197.157 21.906 197.162 21.7443C197.167 21.5827 197.173 21.448 197.173 21.3348C197.173 20.0148 196.904 18.8779 196.36 17.9134V17.9188ZM187.761 18.991C188.057 18.4307 188.477 17.9996 189.031 17.6979C189.58 17.3961 190.204 17.2453 190.904 17.2453C191.603 17.2453 192.238 17.3961 192.766 17.6979C193.293 17.9996 193.707 18.4253 194.009 18.9802C194.219 19.3682 194.348 19.7885 194.407 20.2464H187.379C187.444 19.7885 187.568 19.3682 187.767 18.991H187.761Z" fill="#2A2765"/>
<path d="M202.996 11.9465C202.996 13.3002 201.899 14.3975 200.545 14.3975C199.191 14.3975 198.094 13.3002 198.094 11.9465C198.094 10.5928 199.191 9.49539 200.545 9.49539C201.899 9.49539 202.996 10.5928 202.996 11.9465Z" fill="#2A2765"/>
<path d="M202.672 11.9465C202.672 13.1223 201.719 14.0754 200.543 14.0754C199.367 14.0754 198.414 13.1223 198.414 11.9465C198.414 10.7707 199.367 9.81754 200.543 9.81754C201.719 9.81754 202.672 10.7707 202.672 11.9465Z" fill="white"/>
<path d="M199.695 13.1922V10.6972H200.757C200.9 10.6972 201.031 10.7328 201.15 10.8041C201.271 10.873 201.367 10.9681 201.438 11.0892C201.51 11.2081 201.545 11.3423 201.545 11.492C201.545 11.6275 201.51 11.7534 201.438 11.8698C201.367 11.9863 201.272 12.0801 201.153 12.1514C201.034 12.2203 200.902 12.2548 200.757 12.2548H200.08V13.1922H199.695ZM201.178 13.1922L200.544 12.0659L200.939 11.9768L201.645 13.1957L201.178 13.1922ZM200.08 11.8841H200.793C200.862 11.8841 200.924 11.8674 200.978 11.8342C201.033 11.7985 201.076 11.751 201.107 11.6916C201.138 11.6298 201.153 11.5621 201.153 11.4884C201.153 11.4053 201.133 11.3328 201.093 11.271C201.054 11.2069 201 11.157 200.929 11.1213C200.86 11.0857 200.781 11.0679 200.693 11.0679H200.08V11.8841Z" fill="#2A2765"/>
<defs>
<linearGradient id="paint0_linear_6404_3034" x1="10.2424" y1="37.6608" x2="52.9572" y2="10.2869" gradientUnits="userSpaceOnUse">
<stop stop-color="#FDCD08"/>
<stop offset="0.37" stop-color="#FBCB09"/>
<stop offset="0.5" stop-color="#F7C40C"/>
<stop offset="0.6" stop-color="#F0B813"/>
<stop offset="0.67" stop-color="#E6A71C"/>
<stop offset="0.74" stop-color="#DA9128"/>
<stop offset="0.8" stop-color="#CA7637"/>
<stop offset="0.85" stop-color="#B65648"/>
<stop offset="0.9" stop-color="#A1315C"/>
<stop offset="0.91" stop-color="#9D2A61"/>
</linearGradient>
<linearGradient id="paint1_linear_6404_3034" x1="25.7708" y1="2.81058" x2="37.6078" y2="28.1604" gradientUnits="userSpaceOnUse">
<stop stop-color="#2A2866"/>
<stop offset="0.18" stop-color="#2E2766"/>
<stop offset="0.38" stop-color="#3C2767"/>
<stop offset="0.6" stop-color="#53266A"/>
<stop offset="0.82" stop-color="#73246D"/>
<stop offset="0.94" stop-color="#882470"/>
</linearGradient>
</defs>
</svg>
