<svg width="24" height="25" viewBox="0 0 24 25" fill="none" xmlns="http://www.w3.org/2000/svg">
<path d="M9.37564 13.8976C6.25175 9.26775 3.13775 4.65271 0.00131977 0.00408986H0.214462C2.46203 0.00408986 4.71026 0.00610458 6.95782 6.04307e-05C7.11158 6.04307e-05 7.19472 0.0584872 7.27523 0.178699C8.23734 1.61116 9.20407 3.04027 10.1688 4.47072C10.8551 5.48748 11.5401 6.50491 12.2263 7.52234C12.5959 8.07034 12.9661 8.61767 13.3514 9.18717C13.6194 8.87287 13.8741 8.57603 14.1268 8.27651C15.7699 6.33164 17.413 4.3861 19.0561 2.44122C19.7015 1.67698 20.3469 0.913398 20.9896 0.146463C21.0734 0.0463989 21.1612 -0.00195429 21.2965 6.04307e-05C21.8732 0.00811929 22.4506 0.00341829 23.0273 0.00408986C23.0795 0.00408986 23.1316 0.00879087 23.2207 0.0134919C23.0478 0.221679 22.8967 0.406362 22.7429 0.589029C21.6238 1.91337 20.5046 3.23771 19.3848 4.56138C18.457 5.65805 17.5272 6.75339 16.6001 7.85074C15.857 8.7305 15.1173 9.61361 14.371 10.49C14.2931 10.5813 14.3268 10.6331 14.3776 10.7083C14.8672 11.4329 15.3542 12.1602 15.8432 12.8855C16.6482 14.0789 17.4539 15.2716 18.2597 16.4643C19.5247 18.3367 20.791 20.209 22.056 22.082C22.6743 22.998 23.2913 23.9154 23.9083 24.8321C23.938 24.8758 23.9624 24.9234 24 24.9872C23.9294 24.9913 23.8786 24.9966 23.8271 24.9966C21.5637 24.9966 19.2996 24.996 17.0362 25C16.9142 25 16.8383 24.9631 16.771 24.8623C15.6703 23.223 14.5683 21.5851 13.4649 19.9484C12.4388 18.4273 11.4107 16.9082 10.3833 15.3891C10.3668 15.365 10.347 15.3428 10.314 15.3005C10.0969 15.5557 9.88639 15.8028 9.67655 16.0506C8.55738 17.375 7.43756 18.6986 6.31905 20.0237C5.13852 21.4225 3.95865 22.8221 2.77811 24.2216C2.58675 24.4486 2.3967 24.6776 2.20071 24.8999C2.16112 24.9449 2.09513 24.994 2.04036 24.9946C1.38114 25.0013 0.721254 24.9987 0 24.9987C3.14303 21.2788 6.25307 17.5973 9.37696 13.8989L9.37564 13.8976ZM2.89161 1.63601C3.00973 1.80793 3.10608 1.94762 3.20176 2.08731C4.2457 3.61043 5.28765 5.13423 6.33291 6.65601C7.74177 8.70833 9.15326 10.758 10.5621 12.8103C11.5902 14.3072 12.6137 15.8075 13.6418 17.3045C15.013 19.3017 16.3869 21.297 17.7562 23.2955C17.8294 23.4023 17.9033 23.4487 18.0333 23.448C18.9888 23.4426 19.9443 23.4453 20.8999 23.4446C20.9573 23.4446 21.014 23.4379 21.0985 23.4326C21.0444 23.3473 21.0087 23.2868 20.9685 23.2284C20.3462 22.3224 19.7226 21.4172 19.1004 20.5112C18.2517 19.2748 17.4045 18.0371 16.5552 16.8008C15.2968 14.9687 14.0371 13.1374 12.7793 11.3046C11.773 9.83792 10.7693 8.36919 9.76299 6.90248C8.58774 5.18997 7.40984 3.47948 6.23657 1.76629C6.1686 1.66757 6.09997 1.62056 5.97459 1.62124C5.01314 1.62728 4.05169 1.62459 3.08958 1.62459C3.03745 1.62459 2.98532 1.62997 2.89161 1.63467V1.63601Z" fill="white"/>
</svg>
