<svg width="12" height="12" viewBox="0 0 12 12" fill="none" xmlns="http://www.w3.org/2000/svg">
<path d="M5.64062 9.02499C6.26109 9.02499 6.79225 8.80407 7.2341 8.36222C7.67595 7.92037 7.89687 7.38921 7.89687 6.76875V6.20468C7.89687 6.04487 7.84272 5.911 7.73442 5.80307C7.62612 5.69515 7.49225 5.641 7.33281 5.64062H3.94844C3.78862 5.64062 3.65475 5.69477 3.54682 5.80307C3.4389 5.91137 3.38475 6.04524 3.38437 6.20468V6.76875C3.38437 7.38921 3.6053 7.92037 4.04715 8.36222C4.489 8.80407 5.02015 9.02499 5.64062 9.02499ZM5.64062 8.1789C5.24578 8.1789 4.91204 8.04259 4.63941 7.76996C4.36678 7.49733 4.23047 7.16359 4.23047 6.76875V6.48671H7.05078V6.76875C7.05078 7.16359 6.91446 7.49733 6.64183 7.76996C6.3692 8.04259 6.03547 8.1789 5.64062 8.1789ZM3.6664 2.82031C3.34677 2.82031 3.06474 2.92372 2.82031 3.13054C2.57588 3.33737 2.38786 3.5912 2.25625 3.89203C2.20924 3.99544 2.21639 4.09415 2.27768 4.18816C2.33898 4.28217 2.42584 4.34328 2.53828 4.37148C2.64169 4.39968 2.7451 4.38803 2.84851 4.33651C2.95193 4.28499 3.02713 4.20734 3.07414 4.10355C3.13995 3.98134 3.2223 3.87793 3.3212 3.79332C3.4201 3.70871 3.53517 3.6664 3.6664 3.6664C3.79764 3.6664 3.9129 3.71115 4.01217 3.80065C4.11145 3.89015 4.19361 3.99582 4.25867 4.11765C4.30568 4.22107 4.38088 4.29627 4.48429 4.34328C4.58771 4.39028 4.69112 4.39968 4.79453 4.37148C4.90734 4.34328 4.99439 4.28217 5.05569 4.18816C5.11698 4.09415 5.12394 3.99544 5.07656 3.89203C4.94495 3.5912 4.75692 3.33737 4.5125 3.13054C4.26807 2.92372 3.98604 2.82031 3.6664 2.82031ZM7.61484 2.82031C7.2952 2.82031 7.01317 2.92372 6.76875 3.13054C6.52432 3.33737 6.3363 3.5912 6.20468 3.89203C6.15768 3.99544 6.16482 4.09415 6.22612 4.18816C6.28741 4.28217 6.37428 4.34328 6.48671 4.37148C6.59013 4.39968 6.69354 4.38803 6.79695 4.33651C6.90036 4.28499 6.97557 4.20734 7.02257 4.10355C7.08838 3.98134 7.17073 3.87793 7.26963 3.79332C7.36853 3.70871 7.4836 3.6664 7.61484 3.6664C7.74608 3.6664 7.86133 3.71115 7.96061 3.80065C8.05989 3.89015 8.14205 3.99582 8.2071 4.11765C8.25411 4.22107 8.32932 4.29627 8.43273 4.34328C8.53614 4.39028 8.63955 4.39968 8.74296 4.37148C8.85578 4.34328 8.94283 4.28217 9.00412 4.18816C9.06542 4.09415 9.07238 3.99544 9.02499 3.89203C8.89338 3.5912 8.70536 3.33737 8.46093 3.13054C8.21651 2.92372 7.93447 2.82031 7.61484 2.82031ZM5.64062 11.2812C4.86034 11.2812 4.12706 11.1331 3.44078 10.8368C2.7545 10.5404 2.15754 10.1386 1.64988 9.63136C1.14223 9.12408 0.740426 8.52711 0.444482 7.84046C0.148537 7.15381 0.000376755 6.42053 7.14002e-07 5.64062C-0.000375327 4.86071 0.147785 4.12743 0.444482 3.44078C0.741178 2.75413 1.14298 2.15716 1.64988 1.64988C2.15679 1.1426 2.75375 0.740802 3.44078 0.444481C4.12781 0.14816 4.86109 0 5.64062 0C6.42016 0 7.15344 0.14816 7.84046 0.444481C8.52749 0.740802 9.12446 1.1426 9.63136 1.64988C10.1383 2.15716 10.5403 2.75413 10.8373 3.44078C11.1344 4.12743 11.2824 4.86071 11.2812 5.64062C11.2801 6.42053 11.132 7.15381 10.8368 7.84046C10.5416 8.52711 10.1398 9.12408 9.63136 9.63136C9.12295 10.1386 8.52599 10.5406 7.84046 10.8373C7.15494 11.134 6.42166 11.282 5.64062 11.2812ZM5.64062 10.1531C6.90036 10.1531 7.96738 9.71597 8.84167 8.84167C9.71597 7.96738 10.1531 6.90036 10.1531 5.64062C10.1531 4.38088 9.71597 3.31386 8.84167 2.43957C7.96738 1.56527 6.90036 1.12812 5.64062 1.12812C4.38088 1.12812 3.31387 1.56527 2.43957 2.43957C1.56527 3.31386 1.12812 4.38088 1.12812 5.64062C1.12812 6.90036 1.56527 7.96738 2.43957 8.84167C3.31387 9.71597 4.38088 10.1531 5.64062 10.1531Z" fill="#3AA352"/>
</svg>
