<svg width="19" height="19" viewBox="0 0 19 19" fill="none" xmlns="http://www.w3.org/2000/svg">
<rect width="19" height="19" rx="5" fill="#ECF6EE"/>
<path d="M9.5 12.8844C10.1205 12.8844 10.6516 12.6634 11.0935 12.2216C11.5353 11.7797 11.7562 11.2486 11.7562 10.6281V10.0641C11.7562 9.90424 11.7021 9.77037 11.5938 9.66245C11.4855 9.55452 11.3516 9.50037 11.1922 9.5H7.80781C7.64799 9.5 7.51412 9.55415 7.4062 9.66245C7.29827 9.77075 7.24412 9.90462 7.24375 10.0641V10.6281C7.24375 11.2486 7.46467 11.7797 7.90652 12.2216C8.34837 12.6634 8.87953 12.8844 9.5 12.8844ZM9.5 12.0383C9.10515 12.0383 8.77142 11.902 8.49879 11.6293C8.22616 11.3567 8.08984 11.023 8.08984 10.6281V10.3461H10.9102V10.6281C10.9102 11.023 10.7738 11.3567 10.5012 11.6293C10.2286 11.902 9.89484 12.0383 9.5 12.0383ZM7.52578 6.67969C7.20614 6.67969 6.92411 6.7831 6.67969 6.98992C6.43526 7.19674 6.24724 7.45057 6.11562 7.7514C6.06862 7.85481 6.07576 7.95353 6.13706 8.04754C6.19835 8.14155 6.28522 8.20265 6.39766 8.23086C6.50107 8.25906 6.60448 8.2474 6.70789 8.19588C6.8113 8.14437 6.88651 8.06671 6.93351 7.96293C6.99932 7.84071 7.08167 7.7373 7.18057 7.65269C7.27947 7.56808 7.39454 7.52578 7.52578 7.52578C7.65702 7.52578 7.77227 7.57053 7.87155 7.66003C7.97082 7.74952 8.05299 7.85519 8.11804 7.97703C8.16505 8.08044 8.24026 8.15565 8.34367 8.20265C8.44708 8.24966 8.55049 8.25906 8.6539 8.23086C8.76672 8.20265 8.85377 8.14155 8.91506 8.04754C8.97636 7.95353 8.98332 7.85481 8.93593 7.7514C8.80432 7.45057 8.6163 7.19674 8.37187 6.98992C8.12745 6.7831 7.84541 6.67969 7.52578 6.67969ZM11.4742 6.67969C11.1546 6.67969 10.8725 6.7831 10.6281 6.98992C10.3837 7.19674 10.1957 7.45057 10.0641 7.7514C10.0171 7.85481 10.0242 7.95353 10.0855 8.04754C10.1468 8.14155 10.2337 8.20265 10.3461 8.23086C10.4495 8.25906 10.5529 8.2474 10.6563 8.19588C10.7597 8.14437 10.8349 8.06671 10.8819 7.96293C10.9478 7.84071 11.0301 7.7373 11.129 7.65269C11.2279 7.56808 11.343 7.52578 11.4742 7.52578C11.6055 7.52578 11.7207 7.57053 11.82 7.66003C11.9193 7.74952 12.0014 7.85519 12.0665 7.97703C12.1135 8.08044 12.1887 8.15565 12.2921 8.20265C12.3955 8.24966 12.4989 8.25906 12.6023 8.23086C12.7152 8.20265 12.8022 8.14155 12.8635 8.04754C12.9248 7.95353 12.9318 7.85481 12.8844 7.7514C12.7528 7.45057 12.5647 7.19674 12.3203 6.98992C12.0759 6.7831 11.7938 6.67969 11.4742 6.67969ZM9.5 15.1406C8.71971 15.1406 7.98643 14.9925 7.30015 14.6961C6.61388 14.3998 6.01691 13.998 5.50926 13.4907C5.0016 12.9835 4.5998 12.3865 4.30386 11.6998C4.00791 11.0132 3.85975 10.2799 3.85938 9.5C3.859 8.72009 4.00716 7.98681 4.30386 7.30015C4.60055 6.6135 5.00235 6.01654 5.50926 5.50926C6.01616 5.00198 6.61313 4.60018 7.30015 4.30386C7.98718 4.00754 8.72046 3.85938 9.5 3.85938C10.2795 3.85937 11.0128 4.00754 11.6998 4.30386C12.3869 4.60018 12.9838 5.00198 13.4907 5.50926C13.9976 6.01654 14.3996 6.6135 14.6967 7.30015C14.9938 7.98681 15.1417 8.72009 15.1406 9.5C15.1395 10.2799 14.9913 11.0132 14.6961 11.6998C14.4009 12.3865 13.9991 12.9835 13.4907 13.4907C12.9823 13.998 12.3854 14.4 11.6998 14.6967C11.0143 14.9934 10.281 15.1414 9.5 15.1406ZM9.5 14.0125C10.7597 14.0125 11.8268 13.5753 12.701 12.701C13.5753 11.8268 14.0125 10.7597 14.0125 9.5C14.0125 8.24026 13.5753 7.17324 12.701 6.29894C11.8268 5.42465 10.7597 4.9875 9.5 4.9875C8.24026 4.9875 7.17324 5.42465 6.29894 6.29894C5.42465 7.17324 4.9875 8.24026 4.9875 9.5C4.9875 10.7597 5.42465 11.8268 6.29894 12.701C7.17324 13.5753 8.24026 14.0125 9.5 14.0125Z" fill="#3AA352"/>
</svg>
