<svg width="32" height="22" viewBox="0 0 32 22" fill="none" xmlns="http://www.w3.org/2000/svg">
<path d="M16.4496 0C19.1652 0.0872757 21.8778 0.152983 24.5873 0.270856C25.7315 0.320513 26.8824 0.413306 28.0087 0.604409C29.9067 0.926928 31.0539 2.10365 31.4336 3.94697C31.7883 5.66841 31.9646 7.41091 31.9902 9.16295C32.0132 10.7715 31.9953 12.3821 31.9319 13.9897C31.8726 15.4889 31.6876 16.9806 31.3759 18.4528C31.0463 20.0097 29.7329 21.1874 28.0184 21.4708C26.3376 21.7487 24.6394 21.8681 22.9407 21.9022C19.6676 21.9679 16.3929 22.0145 13.1192 21.997C11.0117 21.9855 8.90363 21.8651 6.79766 21.7537C5.82311 21.7026 4.84755 21.5992 3.88424 21.4457C2.07569 21.1583 0.877314 19.937 0.517545 18.1147C0.211435 16.5633 0.0422823 14.9949 0.0182636 13.4194C-0.0103543 11.5359 -0.0154647 9.64848 0.0790768 7.76754C0.147045 6.41527 0.341238 5.06299 0.575292 3.72677C0.857383 2.11669 2.15541 0.889309 3.80299 0.669114C5.34223 0.463464 6.89271 0.29443 8.4437 0.223707C11.1108 0.102323 13.7815 0.0697203 16.4496 0ZM12.8989 6.31997V15.7548C15.7055 14.1753 18.4733 12.6174 21.2809 11.0374C18.4677 9.45437 15.7024 7.89795 12.8989 6.32047V6.31997Z" fill="white"/>
</svg>
